<svg width="23" height="22" viewBox="0 0 23 22" fill="none" xmlns="http://www.w3.org/2000/svg">
<path d="M14.3518 14.7675L15.8918 13.2275C16.0992 13.0227 16.3616 12.8825 16.6472 12.8239C16.9327 12.7653 17.2292 12.7909 17.5005 12.8975L19.3774 13.6469C19.6516 13.7582 19.8867 13.9482 20.053 14.1928C20.2194 14.4375 20.3097 14.726 20.3124 15.0219V18.4594C20.3108 18.6607 20.2685 18.8596 20.188 19.0441C20.1075 19.2286 19.9905 19.3949 19.8441 19.533C19.6976 19.6711 19.5247 19.7781 19.3358 19.8476C19.1469 19.9172 18.9459 19.9477 18.7449 19.9375C5.593 19.1194 2.93925 7.9819 2.43738 3.7194C2.41408 3.51008 2.43537 3.2982 2.49984 3.0977C2.56431 2.8972 2.6705 2.71262 2.81142 2.55611C2.95235 2.3996 3.12482 2.27469 3.31749 2.18962C3.51015 2.10455 3.71865 2.06124 3.92925 2.06253H7.24988C7.5462 2.06341 7.83548 2.15291 8.08051 2.31954C8.32555 2.48616 8.51513 2.72228 8.62488 2.99753L9.37425 4.8744C9.48443 5.14464 9.51254 5.44134 9.45507 5.72746C9.3976 6.01358 9.2571 6.27642 9.05113 6.48315L7.51113 8.02315C7.51113 8.02315 8.398 14.025 14.3518 14.7675Z" fill="url(#paint0_linear_353_957)"/>
<defs>
<linearGradient id="paint0_linear_353_957" x1="12.3718" y1="2.0625" x2="12.2626" y2="19.9388" gradientUnits="userSpaceOnUse">
<stop stop-color="#3DBFA5"/>
<stop offset="0.984375" stop-color="#2D685B"/>
</linearGradient>
</defs>
</svg>
