<svg width="36" height="36" viewBox="0 0 36 36" fill="none" xmlns="http://www.w3.org/2000/svg">
<rect width="36" height="36" rx="18" fill="#E3EDF0"/>
<rect width="36" height="36" rx="18" fill="#EFF0F5"/>
<rect width="36" height="36" rx="18" fill="white"/>
<rect width="36" height="36" rx="18" fill="#EFF0F5"/>
<rect width="36" height="36" rx="18" fill="url(#paint0_linear_455_334)"/>
<path d="M11.567 10.589C11.6299 10.5261 11.6613 10.4947 11.689 10.4693C12.37 9.84358 13.4166 9.84358 14.0975 10.4693C14.1252 10.4947 14.1567 10.5261 14.2195 10.589L15.5172 11.8867C16.231 12.6005 16.4351 13.6784 16.0318 14.6037C15.6284 15.529 15.8326 16.6069 16.5463 17.3207L18.6793 19.4537C19.3931 20.1674 20.471 20.3716 21.3963 19.9682C22.3216 19.5649 23.3995 19.769 24.1133 20.4828L25.411 21.7805C25.4739 21.8433 25.5053 21.8748 25.5307 21.9025C26.1564 22.5834 26.1564 23.63 25.5307 24.311C25.5053 24.3387 25.4739 24.3701 25.411 24.433L24.6222 25.2218C23.9799 25.8641 23.0539 26.1337 22.1671 25.9367C16.1249 24.594 11.406 19.8751 10.0633 13.8329C9.86626 12.9461 10.1359 12.0201 10.7782 11.3778L11.567 10.589Z" stroke="white" stroke-width="1.5"/>
<defs>
<linearGradient id="paint0_linear_455_334" x1="20.016" y1="-1.71355e-07" x2="19.796" y2="35.9987" gradientUnits="userSpaceOnUse">
<stop stop-color="#65BEAC"/>
<stop offset="0.984375" stop-color="#3E8575"/>
</linearGradient>
</defs>
</svg>
