<svg width="34" height="34" viewBox="0 0 34 34" fill="none" xmlns="http://www.w3.org/2000/svg">
<circle cx="17" cy="17" r="17" fill="#65BEAC"/>
<path d="M10.703 17.369C10.703 16.077 11.0007 14.918 11.596 13.892C12.204 12.866 13.021 12.068 14.047 11.498C15.0857 10.9153 16.2193 10.624 17.448 10.624C18.854 10.624 20.1017 10.9723 21.191 11.669C22.293 12.353 23.091 13.3283 23.585 14.595H20.982C20.64 13.8983 20.165 13.379 19.557 13.037C18.949 12.695 18.246 12.524 17.448 12.524C16.574 12.524 15.795 12.7203 15.111 13.113C14.427 13.5057 13.8887 14.0693 13.496 14.804C13.116 15.5387 12.926 16.3937 12.926 17.369C12.926 18.3443 13.116 19.1993 13.496 19.934C13.8887 20.6687 14.427 21.2387 15.111 21.644C15.795 22.0367 16.574 22.233 17.448 22.233C18.246 22.233 18.949 22.062 19.557 21.72C20.165 21.378 20.64 20.8587 20.982 20.162H23.585C23.091 21.4287 22.293 22.404 21.191 23.088C20.1017 23.772 18.854 24.114 17.448 24.114C16.2067 24.114 15.073 23.829 14.047 23.259C13.021 22.6763 12.204 21.872 11.596 20.846C11.0007 19.82 10.703 18.661 10.703 17.369Z" fill="#142B2F"/>
</svg>
