<svg width="198" height="28" viewBox="0 0 198 28" fill="none" xmlns="http://www.w3.org/2000/svg">
<path d="M54.8618 18.112C54.1258 18.112 53.4644 17.984 52.8778 17.728C52.3018 17.4613 51.8484 17.0987 51.5178 16.64C51.1871 16.1707 51.0164 15.632 51.0058 15.024H52.5578C52.6111 15.5467 52.8244 15.9893 53.1978 16.352C53.5818 16.704 54.1364 16.88 54.8618 16.88C55.5551 16.88 56.0991 16.7093 56.4938 16.368C56.8991 16.016 57.1018 15.568 57.1018 15.024C57.1018 14.5973 56.9844 14.2507 56.7498 13.984C56.5151 13.7173 56.2218 13.5147 55.8698 13.376C55.5178 13.2373 55.0431 13.088 54.4458 12.928C53.7098 12.736 53.1178 12.544 52.6698 12.352C52.2324 12.16 51.8538 11.8613 51.5338 11.456C51.2244 11.04 51.0698 10.4853 51.0698 9.792C51.0698 9.184 51.2244 8.64533 51.5338 8.176C51.8431 7.70667 52.2751 7.344 52.8298 7.088C53.3951 6.832 54.0404 6.704 54.7658 6.704C55.8111 6.704 56.6644 6.96533 57.3258 7.488C57.9978 8.01067 58.3764 8.704 58.4618 9.568H56.8618C56.8084 9.14133 56.5844 8.768 56.1898 8.448C55.7951 8.11733 55.2724 7.952 54.6218 7.952C54.0138 7.952 53.5178 8.112 53.1338 8.432C52.7498 8.74133 52.5578 9.17867 52.5578 9.744C52.5578 10.1493 52.6698 10.48 52.8938 10.736C53.1284 10.992 53.4111 11.1893 53.7418 11.328C54.0831 11.456 54.5578 11.6053 55.1658 11.776C55.9018 11.9787 56.4938 12.1813 56.9418 12.384C57.3898 12.576 57.7738 12.88 58.0938 13.296C58.4138 13.7013 58.5738 14.256 58.5738 14.96C58.5738 15.504 58.4298 16.016 58.1418 16.496C57.8538 16.976 57.4271 17.3653 56.8618 17.664C56.2964 17.9627 55.6298 18.112 54.8618 18.112ZM61.4684 7.808C61.191 7.808 60.9564 7.712 60.7644 7.52C60.5724 7.328 60.4764 7.09333 60.4764 6.816C60.4764 6.53867 60.5724 6.304 60.7644 6.112C60.9564 5.92 61.191 5.824 61.4684 5.824C61.735 5.824 61.959 5.92 62.1404 6.112C62.3324 6.304 62.4284 6.53867 62.4284 6.816C62.4284 7.09333 62.3324 7.328 62.1404 7.52C61.959 7.712 61.735 7.808 61.4684 7.808ZM62.1724 9.232V18H60.7164V9.232H62.1724ZM68.9259 9.072C69.9925 9.072 70.8565 9.39733 71.5179 10.048C72.1792 10.688 72.5099 11.616 72.5099 12.832V18H71.0699V13.04C71.0699 12.1653 70.8512 11.4987 70.4139 11.04C69.9765 10.5707 69.3792 10.336 68.6219 10.336C67.8539 10.336 67.2405 10.576 66.7819 11.056C66.3339 11.536 66.1099 12.2347 66.1099 13.152V18H64.6539V9.232H66.1099V10.48C66.3979 10.032 66.7872 9.68533 67.2779 9.44C67.7792 9.19467 68.3285 9.072 68.9259 9.072ZM78.5043 9.088C79.2616 9.088 79.9229 9.25333 80.4883 9.584C81.0643 9.91467 81.4909 10.3307 81.7683 10.832V9.232H83.2403V18.192C83.2403 18.992 83.0696 19.7013 82.7283 20.32C82.3869 20.9493 81.8963 21.44 81.2563 21.792C80.6269 22.144 79.8909 22.32 79.0483 22.32C77.8963 22.32 76.9363 22.048 76.1683 21.504C75.4003 20.96 74.9469 20.2187 74.8083 19.28H76.2483C76.4083 19.8133 76.7389 20.24 77.2403 20.56C77.7416 20.8907 78.3443 21.056 79.0483 21.056C79.8483 21.056 80.4989 20.8053 81.0003 20.304C81.5123 19.8027 81.7683 19.0987 81.7683 18.192V16.352C81.4803 16.864 81.0536 17.2907 80.4883 17.632C79.9229 17.9733 79.2616 18.144 78.5043 18.144C77.7256 18.144 77.0163 17.952 76.3763 17.568C75.7469 17.184 75.2509 16.6453 74.8883 15.952C74.5256 15.2587 74.3443 14.4693 74.3443 13.584C74.3443 12.688 74.5256 11.904 74.8883 11.232C75.2509 10.5493 75.7469 10.0213 76.3763 9.648C77.0163 9.27467 77.7256 9.088 78.5043 9.088ZM81.7683 13.6C81.7683 12.9387 81.6349 12.3627 81.3683 11.872C81.1016 11.3813 80.7389 11.008 80.2803 10.752C79.8323 10.4853 79.3363 10.352 78.7923 10.352C78.2483 10.352 77.7523 10.48 77.3043 10.736C76.8563 10.992 76.4989 11.3653 76.2323 11.856C75.9656 12.3467 75.8323 12.9227 75.8323 13.584C75.8323 14.256 75.9656 14.8427 76.2323 15.344C76.4989 15.8347 76.8563 16.2133 77.3043 16.48C77.7523 16.736 78.2483 16.864 78.7923 16.864C79.3363 16.864 79.8323 16.736 80.2803 16.48C80.7389 16.2133 81.1016 15.8347 81.3683 15.344C81.6349 14.8427 81.7683 14.2613 81.7683 13.6ZM85.1568 13.584C85.1568 12.688 85.3381 11.904 85.7008 11.232C86.0634 10.5493 86.5594 10.0213 87.1888 9.648C87.8288 9.27467 88.5381 9.088 89.3168 9.088C90.0848 9.088 90.7514 9.25333 91.3168 9.584C91.8821 9.91467 92.3034 10.3307 92.5808 10.832V9.232H94.0528V18H92.5808V16.368C92.2928 16.88 91.8608 17.3067 91.2848 17.648C90.7194 17.9787 90.0581 18.144 89.3008 18.144C88.5221 18.144 87.8181 17.952 87.1888 17.568C86.5594 17.184 86.0634 16.6453 85.7008 15.952C85.3381 15.2587 85.1568 14.4693 85.1568 13.584ZM92.5808 13.6C92.5808 12.9387 92.4474 12.3627 92.1808 11.872C91.9141 11.3813 91.5514 11.008 91.0928 10.752C90.6448 10.4853 90.1488 10.352 89.6048 10.352C89.0608 10.352 88.5648 10.48 88.1168 10.736C87.6688 10.992 87.3114 11.3653 87.0448 11.856C86.7781 12.3467 86.6448 12.9227 86.6448 13.584C86.6448 14.256 86.7781 14.8427 87.0448 15.344C87.3114 15.8347 87.6688 16.2133 88.1168 16.48C88.5648 16.736 89.0608 16.864 89.6048 16.864C90.1488 16.864 90.6448 16.736 91.0928 16.48C91.5514 16.2133 91.9141 15.8347 92.1808 15.344C92.4474 14.8427 92.5808 14.2613 92.5808 13.6ZM97.9693 10.848C98.2573 10.3467 98.6839 9.93067 99.2493 9.6C99.8253 9.25867 100.492 9.088 101.249 9.088C102.028 9.088 102.732 9.27467 103.361 9.648C104.001 10.0213 104.503 10.5493 104.865 11.232C105.228 11.904 105.409 12.688 105.409 13.584C105.409 14.4693 105.228 15.2587 104.865 15.952C104.503 16.6453 104.001 17.184 103.361 17.568C102.732 17.952 102.028 18.144 101.249 18.144C100.503 18.144 99.8413 17.9787 99.2653 17.648C98.6999 17.3067 98.2679 16.8853 97.9693 16.384V22.16H96.5133V9.232H97.9693V10.848ZM103.921 13.584C103.921 12.9227 103.788 12.3467 103.521 11.856C103.255 11.3653 102.892 10.992 102.433 10.736C101.985 10.48 101.489 10.352 100.945 10.352C100.412 10.352 99.9159 10.4853 99.4573 10.752C99.0093 11.008 98.6466 11.3867 98.3693 11.888C98.1026 12.3787 97.9693 12.9493 97.9693 13.6C97.9693 14.2613 98.1026 14.8427 98.3693 15.344C98.6466 15.8347 99.0093 16.2133 99.4573 16.48C99.9159 16.736 100.412 16.864 100.945 16.864C101.489 16.864 101.985 16.736 102.433 16.48C102.892 16.2133 103.255 15.8347 103.521 15.344C103.788 14.8427 103.921 14.256 103.921 13.584ZM111.15 18.144C110.328 18.144 109.582 17.9573 108.91 17.584C108.248 17.2107 107.726 16.6827 107.342 16C106.968 15.3067 106.782 14.5067 106.782 13.6C106.782 12.704 106.974 11.9147 107.358 11.232C107.752 10.5387 108.286 10.0107 108.958 9.648C109.63 9.27467 110.382 9.088 111.214 9.088C112.046 9.088 112.798 9.27467 113.47 9.648C114.142 10.0107 114.67 10.5333 115.054 11.216C115.448 11.8987 115.646 12.6933 115.646 13.6C115.646 14.5067 115.443 15.3067 115.038 16C114.643 16.6827 114.104 17.2107 113.422 17.584C112.739 17.9573 111.982 18.144 111.15 18.144ZM111.15 16.864C111.672 16.864 112.163 16.7413 112.622 16.496C113.08 16.2507 113.448 15.8827 113.726 15.392C114.014 14.9013 114.158 14.304 114.158 13.6C114.158 12.896 114.019 12.2987 113.742 11.808C113.464 11.3173 113.102 10.9547 112.654 10.72C112.206 10.4747 111.72 10.352 111.198 10.352C110.664 10.352 110.174 10.4747 109.726 10.72C109.288 10.9547 108.936 11.3173 108.67 11.808C108.403 12.2987 108.27 12.896 108.27 13.6C108.27 14.3147 108.398 14.9173 108.654 15.408C108.92 15.8987 109.272 16.2667 109.71 16.512C110.147 16.7467 110.627 16.864 111.15 16.864ZM119.016 10.656C119.272 10.1547 119.635 9.76533 120.104 9.488C120.584 9.21067 121.165 9.072 121.848 9.072V10.576H121.464C119.832 10.576 119.016 11.4613 119.016 13.232V18H117.56V9.232H119.016V10.656ZM131.529 13.28C131.529 13.5573 131.513 13.8507 131.481 14.16H124.473C124.526 15.024 124.82 15.7013 125.353 16.192C125.897 16.672 126.553 16.912 127.321 16.912C127.95 16.912 128.473 16.768 128.889 16.48C129.316 16.1813 129.614 15.7867 129.785 15.296H131.353C131.118 16.1387 130.649 16.8267 129.945 17.36C129.241 17.8827 128.366 18.144 127.321 18.144C126.489 18.144 125.742 17.9573 125.081 17.584C124.43 17.2107 123.918 16.6827 123.545 16C123.172 15.3067 122.985 14.5067 122.985 13.6C122.985 12.6933 123.166 11.8987 123.529 11.216C123.892 10.5333 124.398 10.0107 125.049 9.648C125.71 9.27467 126.468 9.088 127.321 9.088C128.153 9.088 128.889 9.26933 129.529 9.632C130.169 9.99467 130.66 10.496 131.001 11.136C131.353 11.7653 131.529 12.48 131.529 13.28ZM130.025 12.976C130.025 12.4213 129.902 11.9467 129.657 11.552C129.412 11.1467 129.076 10.8427 128.649 10.64C128.233 10.4267 127.769 10.32 127.257 10.32C126.521 10.32 125.892 10.5547 125.369 11.024C124.857 11.4933 124.564 12.144 124.489 12.976H130.025ZM139.54 19.696H138.084V5.28H139.54V19.696ZM148.062 6.848V13.904C148.062 14.896 148.302 15.632 148.782 16.112C149.273 16.592 149.95 16.832 150.814 16.832C151.668 16.832 152.334 16.592 152.814 16.112C153.305 15.632 153.55 14.896 153.55 13.904V6.848H155.006V13.888C155.006 14.816 154.82 15.6 154.446 16.24C154.073 16.8693 153.566 17.3387 152.926 17.648C152.297 17.9573 151.588 18.112 150.798 18.112C150.009 18.112 149.294 17.9573 148.654 17.648C148.025 17.3387 147.524 16.8693 147.15 16.24C146.788 15.6 146.606 14.816 146.606 13.888V6.848H148.062ZM160.971 18.112C160.235 18.112 159.574 17.984 158.987 17.728C158.411 17.4613 157.958 17.0987 157.627 16.64C157.296 16.1707 157.126 15.632 157.115 15.024H158.667C158.72 15.5467 158.934 15.9893 159.307 16.352C159.691 16.704 160.246 16.88 160.971 16.88C161.664 16.88 162.208 16.7093 162.603 16.368C163.008 16.016 163.211 15.568 163.211 15.024C163.211 14.5973 163.094 14.2507 162.859 13.984C162.624 13.7173 162.331 13.5147 161.979 13.376C161.627 13.2373 161.152 13.088 160.555 12.928C159.819 12.736 159.227 12.544 158.779 12.352C158.342 12.16 157.963 11.8613 157.643 11.456C157.334 11.04 157.179 10.4853 157.179 9.792C157.179 9.184 157.334 8.64533 157.643 8.176C157.952 7.70667 158.384 7.344 158.939 7.088C159.504 6.832 160.15 6.704 160.875 6.704C161.92 6.704 162.774 6.96533 163.435 7.488C164.107 8.01067 164.486 8.704 164.571 9.568H162.971C162.918 9.14133 162.694 8.768 162.299 8.448C161.904 8.11733 161.382 7.952 160.731 7.952C160.123 7.952 159.627 8.112 159.243 8.432C158.859 8.74133 158.667 9.17867 158.667 9.744C158.667 10.1493 158.779 10.48 159.003 10.736C159.238 10.992 159.52 11.1893 159.851 11.328C160.192 11.456 160.667 11.6053 161.275 11.776C162.011 11.9787 162.603 12.1813 163.051 12.384C163.499 12.576 163.883 12.88 164.203 13.296C164.523 13.7013 164.683 14.256 164.683 14.96C164.683 15.504 164.539 16.016 164.251 16.496C163.963 16.976 163.536 17.3653 162.971 17.664C162.406 17.9627 161.739 18.112 160.971 18.112ZM170.298 6.848C171.514 6.848 172.564 7.07733 173.45 7.536C174.346 7.984 175.028 8.62933 175.498 9.472C175.978 10.3147 176.218 11.3067 176.218 12.448C176.218 13.5893 175.978 14.5813 175.498 15.424C175.028 16.256 174.346 16.896 173.45 17.344C172.564 17.7813 171.514 18 170.298 18H166.826V6.848H170.298ZM170.298 16.8C171.738 16.8 172.836 16.4213 173.594 15.664C174.351 14.896 174.73 13.824 174.73 12.448C174.73 11.0613 174.346 9.97867 173.578 9.2C172.82 8.42133 171.727 8.032 170.298 8.032H168.282V16.8H170.298Z" fill="url(#paint0_linear_455_505)"/>
<path d="M54.8618 18.112C54.1258 18.112 53.4644 17.984 52.8778 17.728C52.3018 17.4613 51.8484 17.0987 51.5178 16.64C51.1871 16.1707 51.0164 15.632 51.0058 15.024H52.5578C52.6111 15.5467 52.8244 15.9893 53.1978 16.352C53.5818 16.704 54.1364 16.88 54.8618 16.88C55.5551 16.88 56.0991 16.7093 56.4938 16.368C56.8991 16.016 57.1018 15.568 57.1018 15.024C57.1018 14.5973 56.9844 14.2507 56.7498 13.984C56.5151 13.7173 56.2218 13.5147 55.8698 13.376C55.5178 13.2373 55.0431 13.088 54.4458 12.928C53.7098 12.736 53.1178 12.544 52.6698 12.352C52.2324 12.16 51.8538 11.8613 51.5338 11.456C51.2244 11.04 51.0698 10.4853 51.0698 9.792C51.0698 9.184 51.2244 8.64533 51.5338 8.176C51.8431 7.70667 52.2751 7.344 52.8298 7.088C53.3951 6.832 54.0404 6.704 54.7658 6.704C55.8111 6.704 56.6644 6.96533 57.3258 7.488C57.9978 8.01067 58.3764 8.704 58.4618 9.568H56.8618C56.8084 9.14133 56.5844 8.768 56.1898 8.448C55.7951 8.11733 55.2724 7.952 54.6218 7.952C54.0138 7.952 53.5178 8.112 53.1338 8.432C52.7498 8.74133 52.5578 9.17867 52.5578 9.744C52.5578 10.1493 52.6698 10.48 52.8938 10.736C53.1284 10.992 53.4111 11.1893 53.7418 11.328C54.0831 11.456 54.5578 11.6053 55.1658 11.776C55.9018 11.9787 56.4938 12.1813 56.9418 12.384C57.3898 12.576 57.7738 12.88 58.0938 13.296C58.4138 13.7013 58.5738 14.256 58.5738 14.96C58.5738 15.504 58.4298 16.016 58.1418 16.496C57.8538 16.976 57.4271 17.3653 56.8618 17.664C56.2964 17.9627 55.6298 18.112 54.8618 18.112ZM61.4684 7.808C61.191 7.808 60.9564 7.712 60.7644 7.52C60.5724 7.328 60.4764 7.09333 60.4764 6.816C60.4764 6.53867 60.5724 6.304 60.7644 6.112C60.9564 5.92 61.191 5.824 61.4684 5.824C61.735 5.824 61.959 5.92 62.1404 6.112C62.3324 6.304 62.4284 6.53867 62.4284 6.816C62.4284 7.09333 62.3324 7.328 62.1404 7.52C61.959 7.712 61.735 7.808 61.4684 7.808ZM62.1724 9.232V18H60.7164V9.232H62.1724ZM68.9259 9.072C69.9925 9.072 70.8565 9.39733 71.5179 10.048C72.1792 10.688 72.5099 11.616 72.5099 12.832V18H71.0699V13.04C71.0699 12.1653 70.8512 11.4987 70.4139 11.04C69.9765 10.5707 69.3792 10.336 68.6219 10.336C67.8539 10.336 67.2405 10.576 66.7819 11.056C66.3339 11.536 66.1099 12.2347 66.1099 13.152V18H64.6539V9.232H66.1099V10.48C66.3979 10.032 66.7872 9.68533 67.2779 9.44C67.7792 9.19467 68.3285 9.072 68.9259 9.072ZM78.5043 9.088C79.2616 9.088 79.9229 9.25333 80.4883 9.584C81.0643 9.91467 81.4909 10.3307 81.7683 10.832V9.232H83.2403V18.192C83.2403 18.992 83.0696 19.7013 82.7283 20.32C82.3869 20.9493 81.8963 21.44 81.2563 21.792C80.6269 22.144 79.8909 22.32 79.0483 22.32C77.8963 22.32 76.9363 22.048 76.1683 21.504C75.4003 20.96 74.9469 20.2187 74.8083 19.28H76.2483C76.4083 19.8133 76.7389 20.24 77.2403 20.56C77.7416 20.8907 78.3443 21.056 79.0483 21.056C79.8483 21.056 80.4989 20.8053 81.0003 20.304C81.5123 19.8027 81.7683 19.0987 81.7683 18.192V16.352C81.4803 16.864 81.0536 17.2907 80.4883 17.632C79.9229 17.9733 79.2616 18.144 78.5043 18.144C77.7256 18.144 77.0163 17.952 76.3763 17.568C75.7469 17.184 75.2509 16.6453 74.8883 15.952C74.5256 15.2587 74.3443 14.4693 74.3443 13.584C74.3443 12.688 74.5256 11.904 74.8883 11.232C75.2509 10.5493 75.7469 10.0213 76.3763 9.648C77.0163 9.27467 77.7256 9.088 78.5043 9.088ZM81.7683 13.6C81.7683 12.9387 81.6349 12.3627 81.3683 11.872C81.1016 11.3813 80.7389 11.008 80.2803 10.752C79.8323 10.4853 79.3363 10.352 78.7923 10.352C78.2483 10.352 77.7523 10.48 77.3043 10.736C76.8563 10.992 76.4989 11.3653 76.2323 11.856C75.9656 12.3467 75.8323 12.9227 75.8323 13.584C75.8323 14.256 75.9656 14.8427 76.2323 15.344C76.4989 15.8347 76.8563 16.2133 77.3043 16.48C77.7523 16.736 78.2483 16.864 78.7923 16.864C79.3363 16.864 79.8323 16.736 80.2803 16.48C80.7389 16.2133 81.1016 15.8347 81.3683 15.344C81.6349 14.8427 81.7683 14.2613 81.7683 13.6ZM85.1568 13.584C85.1568 12.688 85.3381 11.904 85.7008 11.232C86.0634 10.5493 86.5594 10.0213 87.1888 9.648C87.8288 9.27467 88.5381 9.088 89.3168 9.088C90.0848 9.088 90.7514 9.25333 91.3168 9.584C91.8821 9.91467 92.3034 10.3307 92.5808 10.832V9.232H94.0528V18H92.5808V16.368C92.2928 16.88 91.8608 17.3067 91.2848 17.648C90.7194 17.9787 90.0581 18.144 89.3008 18.144C88.5221 18.144 87.8181 17.952 87.1888 17.568C86.5594 17.184 86.0634 16.6453 85.7008 15.952C85.3381 15.2587 85.1568 14.4693 85.1568 13.584ZM92.5808 13.6C92.5808 12.9387 92.4474 12.3627 92.1808 11.872C91.9141 11.3813 91.5514 11.008 91.0928 10.752C90.6448 10.4853 90.1488 10.352 89.6048 10.352C89.0608 10.352 88.5648 10.48 88.1168 10.736C87.6688 10.992 87.3114 11.3653 87.0448 11.856C86.7781 12.3467 86.6448 12.9227 86.6448 13.584C86.6448 14.256 86.7781 14.8427 87.0448 15.344C87.3114 15.8347 87.6688 16.2133 88.1168 16.48C88.5648 16.736 89.0608 16.864 89.6048 16.864C90.1488 16.864 90.6448 16.736 91.0928 16.48C91.5514 16.2133 91.9141 15.8347 92.1808 15.344C92.4474 14.8427 92.5808 14.2613 92.5808 13.6ZM97.9693 10.848C98.2573 10.3467 98.6839 9.93067 99.2493 9.6C99.8253 9.25867 100.492 9.088 101.249 9.088C102.028 9.088 102.732 9.27467 103.361 9.648C104.001 10.0213 104.503 10.5493 104.865 11.232C105.228 11.904 105.409 12.688 105.409 13.584C105.409 14.4693 105.228 15.2587 104.865 15.952C104.503 16.6453 104.001 17.184 103.361 17.568C102.732 17.952 102.028 18.144 101.249 18.144C100.503 18.144 99.8413 17.9787 99.2653 17.648C98.6999 17.3067 98.2679 16.8853 97.9693 16.384V22.16H96.5133V9.232H97.9693V10.848ZM103.921 13.584C103.921 12.9227 103.788 12.3467 103.521 11.856C103.255 11.3653 102.892 10.992 102.433 10.736C101.985 10.48 101.489 10.352 100.945 10.352C100.412 10.352 99.9159 10.4853 99.4573 10.752C99.0093 11.008 98.6466 11.3867 98.3693 11.888C98.1026 12.3787 97.9693 12.9493 97.9693 13.6C97.9693 14.2613 98.1026 14.8427 98.3693 15.344C98.6466 15.8347 99.0093 16.2133 99.4573 16.48C99.9159 16.736 100.412 16.864 100.945 16.864C101.489 16.864 101.985 16.736 102.433 16.48C102.892 16.2133 103.255 15.8347 103.521 15.344C103.788 14.8427 103.921 14.256 103.921 13.584ZM111.15 18.144C110.328 18.144 109.582 17.9573 108.91 17.584C108.248 17.2107 107.726 16.6827 107.342 16C106.968 15.3067 106.782 14.5067 106.782 13.6C106.782 12.704 106.974 11.9147 107.358 11.232C107.752 10.5387 108.286 10.0107 108.958 9.648C109.63 9.27467 110.382 9.088 111.214 9.088C112.046 9.088 112.798 9.27467 113.47 9.648C114.142 10.0107 114.67 10.5333 115.054 11.216C115.448 11.8987 115.646 12.6933 115.646 13.6C115.646 14.5067 115.443 15.3067 115.038 16C114.643 16.6827 114.104 17.2107 113.422 17.584C112.739 17.9573 111.982 18.144 111.15 18.144ZM111.15 16.864C111.672 16.864 112.163 16.7413 112.622 16.496C113.08 16.2507 113.448 15.8827 113.726 15.392C114.014 14.9013 114.158 14.304 114.158 13.6C114.158 12.896 114.019 12.2987 113.742 11.808C113.464 11.3173 113.102 10.9547 112.654 10.72C112.206 10.4747 111.72 10.352 111.198 10.352C110.664 10.352 110.174 10.4747 109.726 10.72C109.288 10.9547 108.936 11.3173 108.67 11.808C108.403 12.2987 108.27 12.896 108.27 13.6C108.27 14.3147 108.398 14.9173 108.654 15.408C108.92 15.8987 109.272 16.2667 109.71 16.512C110.147 16.7467 110.627 16.864 111.15 16.864ZM119.016 10.656C119.272 10.1547 119.635 9.76533 120.104 9.488C120.584 9.21067 121.165 9.072 121.848 9.072V10.576H121.464C119.832 10.576 119.016 11.4613 119.016 13.232V18H117.56V9.232H119.016V10.656ZM131.529 13.28C131.529 13.5573 131.513 13.8507 131.481 14.16H124.473C124.526 15.024 124.82 15.7013 125.353 16.192C125.897 16.672 126.553 16.912 127.321 16.912C127.95 16.912 128.473 16.768 128.889 16.48C129.316 16.1813 129.614 15.7867 129.785 15.296H131.353C131.118 16.1387 130.649 16.8267 129.945 17.36C129.241 17.8827 128.366 18.144 127.321 18.144C126.489 18.144 125.742 17.9573 125.081 17.584C124.43 17.2107 123.918 16.6827 123.545 16C123.172 15.3067 122.985 14.5067 122.985 13.6C122.985 12.6933 123.166 11.8987 123.529 11.216C123.892 10.5333 124.398 10.0107 125.049 9.648C125.71 9.27467 126.468 9.088 127.321 9.088C128.153 9.088 128.889 9.26933 129.529 9.632C130.169 9.99467 130.66 10.496 131.001 11.136C131.353 11.7653 131.529 12.48 131.529 13.28ZM130.025 12.976C130.025 12.4213 129.902 11.9467 129.657 11.552C129.412 11.1467 129.076 10.8427 128.649 10.64C128.233 10.4267 127.769 10.32 127.257 10.32C126.521 10.32 125.892 10.5547 125.369 11.024C124.857 11.4933 124.564 12.144 124.489 12.976H130.025ZM139.54 19.696H138.084V5.28H139.54V19.696ZM148.062 6.848V13.904C148.062 14.896 148.302 15.632 148.782 16.112C149.273 16.592 149.95 16.832 150.814 16.832C151.668 16.832 152.334 16.592 152.814 16.112C153.305 15.632 153.55 14.896 153.55 13.904V6.848H155.006V13.888C155.006 14.816 154.82 15.6 154.446 16.24C154.073 16.8693 153.566 17.3387 152.926 17.648C152.297 17.9573 151.588 18.112 150.798 18.112C150.009 18.112 149.294 17.9573 148.654 17.648C148.025 17.3387 147.524 16.8693 147.15 16.24C146.788 15.6 146.606 14.816 146.606 13.888V6.848H148.062ZM160.971 18.112C160.235 18.112 159.574 17.984 158.987 17.728C158.411 17.4613 157.958 17.0987 157.627 16.64C157.296 16.1707 157.126 15.632 157.115 15.024H158.667C158.72 15.5467 158.934 15.9893 159.307 16.352C159.691 16.704 160.246 16.88 160.971 16.88C161.664 16.88 162.208 16.7093 162.603 16.368C163.008 16.016 163.211 15.568 163.211 15.024C163.211 14.5973 163.094 14.2507 162.859 13.984C162.624 13.7173 162.331 13.5147 161.979 13.376C161.627 13.2373 161.152 13.088 160.555 12.928C159.819 12.736 159.227 12.544 158.779 12.352C158.342 12.16 157.963 11.8613 157.643 11.456C157.334 11.04 157.179 10.4853 157.179 9.792C157.179 9.184 157.334 8.64533 157.643 8.176C157.952 7.70667 158.384 7.344 158.939 7.088C159.504 6.832 160.15 6.704 160.875 6.704C161.92 6.704 162.774 6.96533 163.435 7.488C164.107 8.01067 164.486 8.704 164.571 9.568H162.971C162.918 9.14133 162.694 8.768 162.299 8.448C161.904 8.11733 161.382 7.952 160.731 7.952C160.123 7.952 159.627 8.112 159.243 8.432C158.859 8.74133 158.667 9.17867 158.667 9.744C158.667 10.1493 158.779 10.48 159.003 10.736C159.238 10.992 159.52 11.1893 159.851 11.328C160.192 11.456 160.667 11.6053 161.275 11.776C162.011 11.9787 162.603 12.1813 163.051 12.384C163.499 12.576 163.883 12.88 164.203 13.296C164.523 13.7013 164.683 14.256 164.683 14.96C164.683 15.504 164.539 16.016 164.251 16.496C163.963 16.976 163.536 17.3653 162.971 17.664C162.406 17.9627 161.739 18.112 160.971 18.112ZM170.298 6.848C171.514 6.848 172.564 7.07733 173.45 7.536C174.346 7.984 175.028 8.62933 175.498 9.472C175.978 10.3147 176.218 11.3067 176.218 12.448C176.218 13.5893 175.978 14.5813 175.498 15.424C175.028 16.256 174.346 16.896 173.45 17.344C172.564 17.7813 171.514 18 170.298 18H166.826V6.848H170.298ZM170.298 16.8C171.738 16.8 172.836 16.4213 173.594 15.664C174.351 14.896 174.73 13.824 174.73 12.448C174.73 11.0613 174.346 9.97867 173.578 9.2C172.82 8.42133 171.727 8.032 170.298 8.032H168.282V16.8H170.298Z" fill="url(#paint1_linear_455_505)"/>
<path d="M54.8618 18.112C54.1258 18.112 53.4644 17.984 52.8778 17.728C52.3018 17.4613 51.8484 17.0987 51.5178 16.64C51.1871 16.1707 51.0164 15.632 51.0058 15.024H52.5578C52.6111 15.5467 52.8244 15.9893 53.1978 16.352C53.5818 16.704 54.1364 16.88 54.8618 16.88C55.5551 16.88 56.0991 16.7093 56.4938 16.368C56.8991 16.016 57.1018 15.568 57.1018 15.024C57.1018 14.5973 56.9844 14.2507 56.7498 13.984C56.5151 13.7173 56.2218 13.5147 55.8698 13.376C55.5178 13.2373 55.0431 13.088 54.4458 12.928C53.7098 12.736 53.1178 12.544 52.6698 12.352C52.2324 12.16 51.8538 11.8613 51.5338 11.456C51.2244 11.04 51.0698 10.4853 51.0698 9.792C51.0698 9.184 51.2244 8.64533 51.5338 8.176C51.8431 7.70667 52.2751 7.344 52.8298 7.088C53.3951 6.832 54.0404 6.704 54.7658 6.704C55.8111 6.704 56.6644 6.96533 57.3258 7.488C57.9978 8.01067 58.3764 8.704 58.4618 9.568H56.8618C56.8084 9.14133 56.5844 8.768 56.1898 8.448C55.7951 8.11733 55.2724 7.952 54.6218 7.952C54.0138 7.952 53.5178 8.112 53.1338 8.432C52.7498 8.74133 52.5578 9.17867 52.5578 9.744C52.5578 10.1493 52.6698 10.48 52.8938 10.736C53.1284 10.992 53.4111 11.1893 53.7418 11.328C54.0831 11.456 54.5578 11.6053 55.1658 11.776C55.9018 11.9787 56.4938 12.1813 56.9418 12.384C57.3898 12.576 57.7738 12.88 58.0938 13.296C58.4138 13.7013 58.5738 14.256 58.5738 14.96C58.5738 15.504 58.4298 16.016 58.1418 16.496C57.8538 16.976 57.4271 17.3653 56.8618 17.664C56.2964 17.9627 55.6298 18.112 54.8618 18.112ZM61.4684 7.808C61.191 7.808 60.9564 7.712 60.7644 7.52C60.5724 7.328 60.4764 7.09333 60.4764 6.816C60.4764 6.53867 60.5724 6.304 60.7644 6.112C60.9564 5.92 61.191 5.824 61.4684 5.824C61.735 5.824 61.959 5.92 62.1404 6.112C62.3324 6.304 62.4284 6.53867 62.4284 6.816C62.4284 7.09333 62.3324 7.328 62.1404 7.52C61.959 7.712 61.735 7.808 61.4684 7.808ZM62.1724 9.232V18H60.7164V9.232H62.1724ZM68.9259 9.072C69.9925 9.072 70.8565 9.39733 71.5179 10.048C72.1792 10.688 72.5099 11.616 72.5099 12.832V18H71.0699V13.04C71.0699 12.1653 70.8512 11.4987 70.4139 11.04C69.9765 10.5707 69.3792 10.336 68.6219 10.336C67.8539 10.336 67.2405 10.576 66.7819 11.056C66.3339 11.536 66.1099 12.2347 66.1099 13.152V18H64.6539V9.232H66.1099V10.48C66.3979 10.032 66.7872 9.68533 67.2779 9.44C67.7792 9.19467 68.3285 9.072 68.9259 9.072ZM78.5043 9.088C79.2616 9.088 79.9229 9.25333 80.4883 9.584C81.0643 9.91467 81.4909 10.3307 81.7683 10.832V9.232H83.2403V18.192C83.2403 18.992 83.0696 19.7013 82.7283 20.32C82.3869 20.9493 81.8963 21.44 81.2563 21.792C80.6269 22.144 79.8909 22.32 79.0483 22.32C77.8963 22.32 76.9363 22.048 76.1683 21.504C75.4003 20.96 74.9469 20.2187 74.8083 19.28H76.2483C76.4083 19.8133 76.7389 20.24 77.2403 20.56C77.7416 20.8907 78.3443 21.056 79.0483 21.056C79.8483 21.056 80.4989 20.8053 81.0003 20.304C81.5123 19.8027 81.7683 19.0987 81.7683 18.192V16.352C81.4803 16.864 81.0536 17.2907 80.4883 17.632C79.9229 17.9733 79.2616 18.144 78.5043 18.144C77.7256 18.144 77.0163 17.952 76.3763 17.568C75.7469 17.184 75.2509 16.6453 74.8883 15.952C74.5256 15.2587 74.3443 14.4693 74.3443 13.584C74.3443 12.688 74.5256 11.904 74.8883 11.232C75.2509 10.5493 75.7469 10.0213 76.3763 9.648C77.0163 9.27467 77.7256 9.088 78.5043 9.088ZM81.7683 13.6C81.7683 12.9387 81.6349 12.3627 81.3683 11.872C81.1016 11.3813 80.7389 11.008 80.2803 10.752C79.8323 10.4853 79.3363 10.352 78.7923 10.352C78.2483 10.352 77.7523 10.48 77.3043 10.736C76.8563 10.992 76.4989 11.3653 76.2323 11.856C75.9656 12.3467 75.8323 12.9227 75.8323 13.584C75.8323 14.256 75.9656 14.8427 76.2323 15.344C76.4989 15.8347 76.8563 16.2133 77.3043 16.48C77.7523 16.736 78.2483 16.864 78.7923 16.864C79.3363 16.864 79.8323 16.736 80.2803 16.48C80.7389 16.2133 81.1016 15.8347 81.3683 15.344C81.6349 14.8427 81.7683 14.2613 81.7683 13.6ZM85.1568 13.584C85.1568 12.688 85.3381 11.904 85.7008 11.232C86.0634 10.5493 86.5594 10.0213 87.1888 9.648C87.8288 9.27467 88.5381 9.088 89.3168 9.088C90.0848 9.088 90.7514 9.25333 91.3168 9.584C91.8821 9.91467 92.3034 10.3307 92.5808 10.832V9.232H94.0528V18H92.5808V16.368C92.2928 16.88 91.8608 17.3067 91.2848 17.648C90.7194 17.9787 90.0581 18.144 89.3008 18.144C88.5221 18.144 87.8181 17.952 87.1888 17.568C86.5594 17.184 86.0634 16.6453 85.7008 15.952C85.3381 15.2587 85.1568 14.4693 85.1568 13.584ZM92.5808 13.6C92.5808 12.9387 92.4474 12.3627 92.1808 11.872C91.9141 11.3813 91.5514 11.008 91.0928 10.752C90.6448 10.4853 90.1488 10.352 89.6048 10.352C89.0608 10.352 88.5648 10.48 88.1168 10.736C87.6688 10.992 87.3114 11.3653 87.0448 11.856C86.7781 12.3467 86.6448 12.9227 86.6448 13.584C86.6448 14.256 86.7781 14.8427 87.0448 15.344C87.3114 15.8347 87.6688 16.2133 88.1168 16.48C88.5648 16.736 89.0608 16.864 89.6048 16.864C90.1488 16.864 90.6448 16.736 91.0928 16.48C91.5514 16.2133 91.9141 15.8347 92.1808 15.344C92.4474 14.8427 92.5808 14.2613 92.5808 13.6ZM97.9693 10.848C98.2573 10.3467 98.6839 9.93067 99.2493 9.6C99.8253 9.25867 100.492 9.088 101.249 9.088C102.028 9.088 102.732 9.27467 103.361 9.648C104.001 10.0213 104.503 10.5493 104.865 11.232C105.228 11.904 105.409 12.688 105.409 13.584C105.409 14.4693 105.228 15.2587 104.865 15.952C104.503 16.6453 104.001 17.184 103.361 17.568C102.732 17.952 102.028 18.144 101.249 18.144C100.503 18.144 99.8413 17.9787 99.2653 17.648C98.6999 17.3067 98.2679 16.8853 97.9693 16.384V22.16H96.5133V9.232H97.9693V10.848ZM103.921 13.584C103.921 12.9227 103.788 12.3467 103.521 11.856C103.255 11.3653 102.892 10.992 102.433 10.736C101.985 10.48 101.489 10.352 100.945 10.352C100.412 10.352 99.9159 10.4853 99.4573 10.752C99.0093 11.008 98.6466 11.3867 98.3693 11.888C98.1026 12.3787 97.9693 12.9493 97.9693 13.6C97.9693 14.2613 98.1026 14.8427 98.3693 15.344C98.6466 15.8347 99.0093 16.2133 99.4573 16.48C99.9159 16.736 100.412 16.864 100.945 16.864C101.489 16.864 101.985 16.736 102.433 16.48C102.892 16.2133 103.255 15.8347 103.521 15.344C103.788 14.8427 103.921 14.256 103.921 13.584ZM111.15 18.144C110.328 18.144 109.582 17.9573 108.91 17.584C108.248 17.2107 107.726 16.6827 107.342 16C106.968 15.3067 106.782 14.5067 106.782 13.6C106.782 12.704 106.974 11.9147 107.358 11.232C107.752 10.5387 108.286 10.0107 108.958 9.648C109.63 9.27467 110.382 9.088 111.214 9.088C112.046 9.088 112.798 9.27467 113.47 9.648C114.142 10.0107 114.67 10.5333 115.054 11.216C115.448 11.8987 115.646 12.6933 115.646 13.6C115.646 14.5067 115.443 15.3067 115.038 16C114.643 16.6827 114.104 17.2107 113.422 17.584C112.739 17.9573 111.982 18.144 111.15 18.144ZM111.15 16.864C111.672 16.864 112.163 16.7413 112.622 16.496C113.08 16.2507 113.448 15.8827 113.726 15.392C114.014 14.9013 114.158 14.304 114.158 13.6C114.158 12.896 114.019 12.2987 113.742 11.808C113.464 11.3173 113.102 10.9547 112.654 10.72C112.206 10.4747 111.72 10.352 111.198 10.352C110.664 10.352 110.174 10.4747 109.726 10.72C109.288 10.9547 108.936 11.3173 108.67 11.808C108.403 12.2987 108.27 12.896 108.27 13.6C108.27 14.3147 108.398 14.9173 108.654 15.408C108.92 15.8987 109.272 16.2667 109.71 16.512C110.147 16.7467 110.627 16.864 111.15 16.864ZM119.016 10.656C119.272 10.1547 119.635 9.76533 120.104 9.488C120.584 9.21067 121.165 9.072 121.848 9.072V10.576H121.464C119.832 10.576 119.016 11.4613 119.016 13.232V18H117.56V9.232H119.016V10.656ZM131.529 13.28C131.529 13.5573 131.513 13.8507 131.481 14.16H124.473C124.526 15.024 124.82 15.7013 125.353 16.192C125.897 16.672 126.553 16.912 127.321 16.912C127.95 16.912 128.473 16.768 128.889 16.48C129.316 16.1813 129.614 15.7867 129.785 15.296H131.353C131.118 16.1387 130.649 16.8267 129.945 17.36C129.241 17.8827 128.366 18.144 127.321 18.144C126.489 18.144 125.742 17.9573 125.081 17.584C124.43 17.2107 123.918 16.6827 123.545 16C123.172 15.3067 122.985 14.5067 122.985 13.6C122.985 12.6933 123.166 11.8987 123.529 11.216C123.892 10.5333 124.398 10.0107 125.049 9.648C125.71 9.27467 126.468 9.088 127.321 9.088C128.153 9.088 128.889 9.26933 129.529 9.632C130.169 9.99467 130.66 10.496 131.001 11.136C131.353 11.7653 131.529 12.48 131.529 13.28ZM130.025 12.976C130.025 12.4213 129.902 11.9467 129.657 11.552C129.412 11.1467 129.076 10.8427 128.649 10.64C128.233 10.4267 127.769 10.32 127.257 10.32C126.521 10.32 125.892 10.5547 125.369 11.024C124.857 11.4933 124.564 12.144 124.489 12.976H130.025ZM139.54 19.696H138.084V5.28H139.54V19.696ZM148.062 6.848V13.904C148.062 14.896 148.302 15.632 148.782 16.112C149.273 16.592 149.95 16.832 150.814 16.832C151.668 16.832 152.334 16.592 152.814 16.112C153.305 15.632 153.55 14.896 153.55 13.904V6.848H155.006V13.888C155.006 14.816 154.82 15.6 154.446 16.24C154.073 16.8693 153.566 17.3387 152.926 17.648C152.297 17.9573 151.588 18.112 150.798 18.112C150.009 18.112 149.294 17.9573 148.654 17.648C148.025 17.3387 147.524 16.8693 147.15 16.24C146.788 15.6 146.606 14.816 146.606 13.888V6.848H148.062ZM160.971 18.112C160.235 18.112 159.574 17.984 158.987 17.728C158.411 17.4613 157.958 17.0987 157.627 16.64C157.296 16.1707 157.126 15.632 157.115 15.024H158.667C158.72 15.5467 158.934 15.9893 159.307 16.352C159.691 16.704 160.246 16.88 160.971 16.88C161.664 16.88 162.208 16.7093 162.603 16.368C163.008 16.016 163.211 15.568 163.211 15.024C163.211 14.5973 163.094 14.2507 162.859 13.984C162.624 13.7173 162.331 13.5147 161.979 13.376C161.627 13.2373 161.152 13.088 160.555 12.928C159.819 12.736 159.227 12.544 158.779 12.352C158.342 12.16 157.963 11.8613 157.643 11.456C157.334 11.04 157.179 10.4853 157.179 9.792C157.179 9.184 157.334 8.64533 157.643 8.176C157.952 7.70667 158.384 7.344 158.939 7.088C159.504 6.832 160.15 6.704 160.875 6.704C161.92 6.704 162.774 6.96533 163.435 7.488C164.107 8.01067 164.486 8.704 164.571 9.568H162.971C162.918 9.14133 162.694 8.768 162.299 8.448C161.904 8.11733 161.382 7.952 160.731 7.952C160.123 7.952 159.627 8.112 159.243 8.432C158.859 8.74133 158.667 9.17867 158.667 9.744C158.667 10.1493 158.779 10.48 159.003 10.736C159.238 10.992 159.52 11.1893 159.851 11.328C160.192 11.456 160.667 11.6053 161.275 11.776C162.011 11.9787 162.603 12.1813 163.051 12.384C163.499 12.576 163.883 12.88 164.203 13.296C164.523 13.7013 164.683 14.256 164.683 14.96C164.683 15.504 164.539 16.016 164.251 16.496C163.963 16.976 163.536 17.3653 162.971 17.664C162.406 17.9627 161.739 18.112 160.971 18.112ZM170.298 6.848C171.514 6.848 172.564 7.07733 173.45 7.536C174.346 7.984 175.028 8.62933 175.498 9.472C175.978 10.3147 176.218 11.3067 176.218 12.448C176.218 13.5893 175.978 14.5813 175.498 15.424C175.028 16.256 174.346 16.896 173.45 17.344C172.564 17.7813 171.514 18 170.298 18H166.826V6.848H170.298ZM170.298 16.8C171.738 16.8 172.836 16.4213 173.594 15.664C174.351 14.896 174.73 13.824 174.73 12.448C174.73 11.0613 174.346 9.97867 173.578 9.2C172.82 8.42133 171.727 8.032 170.298 8.032H168.282V16.8H170.298Z" fill="white"/>
<g filter="url(#filter0_d_455_505)">
<mask id="mask0_455_505" style="mask-type:luminance" maskUnits="userSpaceOnUse" x="2" y="0" width="32" height="24">
<path d="M2 2C2 0.89543 2.89543 0 4 0H32C33.1046 0 34 0.895431 34 2V22C34 23.1046 33.1046 24 32 24H4C2.89543 24 2 23.1046 2 22V2Z" fill="white"/>
</mask>
<g mask="url(#mask0_455_505)">
<path fill-rule="evenodd" clip-rule="evenodd" d="M0.999756 2C0.999756 0.89543 1.89519 0 2.99976 0H34.9998C36.1043 0 36.9998 0.895431 36.9998 2V22C36.9998 23.1046 36.1043 24 34.9998 24H2.99976C1.89519 24 0.999756 23.1046 0.999756 22V2Z" fill="white"/>
<path fill-rule="evenodd" clip-rule="evenodd" d="M0.999756 2C0.999756 0.895431 1.89519 0 2.99976 0H34.9998C36.1043 0 36.9998 0.895431 36.9998 2V10C36.9998 11.1046 36.1043 12 34.9998 12H2.99976C1.89519 12 0.999756 11.1046 0.999756 10V2Z" fill="#DF0000"/>
<path fill-rule="evenodd" clip-rule="evenodd" d="M9.30231 2.01133C7.64016 2.39243 6.40511 3.62318 6.05596 5.29638C5.58156 7.56983 7.06216 9.79588 9.34031 10.2708C7.03876 10.927 4.66081 9.60418 4.01061 7.32418C3.36081 5.04418 4.68361 2.66618 6.96376 2.01608C7.76411 1.78783 8.50101 1.78638 9.30241 2.01133H9.30231Z" fill="white"/>
<path fill-rule="evenodd" clip-rule="evenodd" d="M8.64907 5.49775L8.89377 6.2537L8.24717 5.7922L7.60367 6.25805L7.84282 5.50085L7.20117 5.03315L7.99497 5.0263L8.24157 4.271L8.49312 5.02445L9.28757 5.0257L8.64907 5.49775ZM9.52702 8.1007L9.77172 8.85665L9.12512 8.39515L8.48162 8.861L8.72077 8.10385L8.07912 7.6361L8.87297 7.62925L9.11952 6.87395L9.37112 7.62745L10.1655 7.62865L9.52702 8.1007ZM12.4483 8.08195L12.693 8.8379L12.0464 8.3764L11.4029 8.84225L11.642 8.0851L11.0004 7.61735L11.7942 7.6105L12.0408 6.8552L12.2924 7.6087L13.0868 7.6099L12.4483 8.08195ZM13.3197 5.5001L13.5644 6.256L12.9178 5.7945L12.2743 6.26035L12.5134 5.5032L11.8718 5.0355L12.6656 5.02865L12.9122 4.27335L13.1637 5.0268L13.9582 5.02805L13.3197 5.5001ZM11.0069 3.7873L11.2516 4.5432L10.605 4.0817L9.96147 4.54755L10.2006 3.7904L9.55897 3.32265L10.3528 3.31585L10.5994 2.56055L10.851 3.31395L11.6454 3.3152L11.0069 3.7873Z" fill="white"/>
</g>
</g>
<path d="M187 12L191.78 16L196.333 12.1905" stroke="white" stroke-width="1.5" stroke-linecap="round"/>
<defs>
<filter id="filter0_d_455_505" x="0" y="0" width="36" height="28" filterUnits="userSpaceOnUse" color-interpolation-filters="sRGB">
<feFlood flood-opacity="0" result="BackgroundImageFix"/>
<feColorMatrix in="SourceAlpha" type="matrix" values="0 0 0 0 0 0 0 0 0 0 0 0 0 0 0 0 0 0 127 0" result="hardAlpha"/>
<feOffset dy="2"/>
<feGaussianBlur stdDeviation="1"/>
<feComposite in2="hardAlpha" operator="out"/>
<feColorMatrix type="matrix" values="0 0 0 0 0 0 0 0 0 0 0 0 0 0 0 0 0 0 0.25 0"/>
<feBlend mode="normal" in2="BackgroundImageFix" result="effect1_dropShadow_455_505"/>
<feBlend mode="normal" in="SourceGraphic" in2="effect1_dropShadow_455_505" result="shape"/>
</filter>
<linearGradient id="paint0_linear_455_505" x1="50" y1="13.08" x2="177" y2="13.08" gradientUnits="userSpaceOnUse">
<stop stop-color="#5A21D7"/>
<stop offset="1" stop-color="#66A4E3"/>
</linearGradient>
<linearGradient id="paint1_linear_455_505" x1="55.715" y1="12" x2="177" y2="12" gradientUnits="userSpaceOnUse">
<stop stop-color="#7260F3"/>
<stop offset="1" stop-color="#D45F99"/>
</linearGradient>
</defs>
</svg>
