<svg width="18" height="18" viewBox="0 0 18 18" fill="none" xmlns="http://www.w3.org/2000/svg">
<path fill-rule="evenodd" clip-rule="evenodd" d="M1.52124 8.42214C1.52124 4.6321 4.63266 1.54492 8.4905 1.54492C12.3472 1.54492 15.4598 4.63218 15.4598 8.42214C15.4598 12.2121 12.3472 15.2993 8.4905 15.2993C4.63266 15.2993 1.52124 12.2122 1.52124 8.42214ZM8.4905 0.0449219C3.82125 0.0449219 0.0212402 3.78676 0.0212402 8.42214C0.0212402 13.0575 3.82125 16.7994 8.4905 16.7994C10.5805 16.7994 12.4967 16.0493 13.9758 14.8048C13.9962 14.8356 14.0192 14.8653 14.0447 14.8936L16.6178 17.7462C16.8952 18.0538 17.3695 18.0782 17.677 17.8008C17.9846 17.5234 18.0091 17.0491 17.7316 16.7416L15.1585 13.8889C15.1148 13.8405 15.0662 13.799 15.0142 13.7647C16.2287 12.3158 16.9598 10.4549 16.9598 8.42214C16.9598 3.78669 13.1585 0.0449219 8.4905 0.0449219Z" fill="#1AB192"/>
</svg>
