<svg width="101" height="32" viewBox="0 0 101 32" fill="none" xmlns="http://www.w3.org/2000/svg">
<g clip-path="url(#clip0_455_470)">
<path d="M14.6896 17.0026C13.4946 16.5593 11.3078 13.9267 11.5647 10.5336C11.8587 6.65866 14.8912 4.30718 16.5721 0.683594C16.6468 0.927736 16.7054 1.16465 16.7793 1.39514C16.4468 2.40946 13.2368 8.02072 13.1525 11.5712C13.0971 13.9058 13.9949 15.9441 14.6896 17.0026Z" fill="url(#paint0_linear_455_470)"/>
<g filter="url(#filter0_ddii_455_470)">
<path d="M13.5448 20.918C13.3119 21.693 13.1786 22.3475 13.1023 22.7868L12.4196 21.2328L7.36411 9.42486C7.13442 8.88919 7.52874 8.29089 8.1134 8.29089H8.90686V7.14406H1.4292V8.29089H2.69649C3.41366 8.29089 4.06176 8.71813 4.34365 9.37748L10.9194 24.7303L11.9635 27.1694H12.8726L13.9166 24.7319L16.7058 18.2196L19.4901 24.7175L20.5398 27.1694H21.4376L22.4889 24.7175L29.0599 9.37748C29.3417 8.71733 29.9898 8.29089 30.707 8.29089H31.6651V7.14406H24.4862V8.29089H25.2909C25.8756 8.29089 26.2699 8.88919 26.0402 9.42486L20.906 21.84L19.0749 17.0142C20.7076 15.9597 21.8287 13.7656 21.8287 11.2286C21.8287 6.99709 17.4133 4.43601 16.7684 1.36816C15.6376 4.0208 11.9241 6.99789 11.9241 11.2286C11.9241 14.0106 13.356 16.3644 14.6884 17.023C14.6611 16.6937 14.7237 16.3693 14.7775 15.9541C14.8779 15.1879 14.9373 14.7109 15.0209 14.1913C14.796 14.0901 14.4282 13.8861 14.1053 13.4982C13.5608 12.8437 13.5159 12.1096 13.5118 11.8655C13.67 12.1209 13.964 12.6308 14.3278 12.9561C14.6225 13.2195 14.8627 13.3689 15.0956 13.3504C15.1494 13.1818 15.1478 12.9537 15.208 12.5505C15.2666 12.1562 15.318 11.9048 15.3429 11.643C15.1518 11.5643 14.7301 11.3587 14.4025 10.901C13.96 10.2826 13.9913 9.62724 14.0065 9.44092C14.164 9.82641 14.3382 10.1613 14.6699 10.4633C14.9036 10.6761 15.224 10.8303 15.4417 10.8263C15.4561 10.6978 15.4746 10.35 15.6224 9.9276C15.7348 9.60636 15.8416 9.3558 15.9115 9.21847C15.7509 9.10443 15.3598 8.8908 15.159 8.56073C14.8249 8.01221 14.5944 7.4131 14.6281 7.283C14.8787 7.70382 15.0168 7.92226 15.2072 8.07887C15.3389 8.18809 15.6208 8.32381 15.8657 8.26679C15.8962 8.25876 15.9452 8.23547 15.9637 8.21298C16.0127 8.15275 16.1629 7.41872 16.3002 6.95292C16.4648 6.45018 17.0278 5.55151 17.0278 5.55151C17.0278 5.55151 16.778 6.77865 16.6985 7.3609C16.5893 8.16319 16.3508 9.50758 16.456 9.20803C16.5339 8.98476 17.2181 8.38806 18.2292 8.18648C18.0983 8.21298 17.5763 8.61293 17.4004 8.79443C17.015 9.19196 16.9041 9.37748 16.5468 10.0481C16.3026 10.5058 16.0384 11.366 16.0593 12.5859C16.252 12.3257 16.7202 11.7595 17.4069 11.4109C18.0783 11.0696 18.622 10.8889 19.2034 10.7524C18.6926 11.0817 17.6173 11.7707 16.9893 12.5361C16.0055 13.7351 15.8111 14.425 15.8384 15.5027C15.987 15.2891 16.3428 14.8378 16.9764 14.5374C17.5932 14.2451 18.1521 14.2475 18.4116 14.2651C17.1354 14.9759 16.3155 15.7854 15.8384 16.3347C14.437 17.9458 13.9126 19.6909 13.5432 20.9188L13.5448 20.918Z" fill="url(#paint1_linear_455_470)"/>
<path d="M13.5448 20.918C13.3119 21.693 13.1786 22.3475 13.1023 22.7868L12.4196 21.2328L7.36411 9.42486C7.13442 8.88919 7.52874 8.29089 8.1134 8.29089H8.90686V7.14406H1.4292V8.29089H2.69649C3.41366 8.29089 4.06176 8.71813 4.34365 9.37748L10.9194 24.7303L11.9635 27.1694H12.8726L13.9166 24.7319L16.7058 18.2196L19.4901 24.7175L20.5398 27.1694H21.4376L22.4889 24.7175L29.0599 9.37748C29.3417 8.71733 29.9898 8.29089 30.707 8.29089H31.6651V7.14406H24.4862V8.29089H25.2909C25.8756 8.29089 26.2699 8.88919 26.0402 9.42486L20.906 21.84L19.0749 17.0142C20.7076 15.9597 21.8287 13.7656 21.8287 11.2286C21.8287 6.99709 17.4133 4.43601 16.7684 1.36816C15.6376 4.0208 11.9241 6.99789 11.9241 11.2286C11.9241 14.0106 13.356 16.3644 14.6884 17.023C14.6611 16.6937 14.7237 16.3693 14.7775 15.9541C14.8779 15.1879 14.9373 14.7109 15.0209 14.1913C14.796 14.0901 14.4282 13.8861 14.1053 13.4982C13.5608 12.8437 13.5159 12.1096 13.5118 11.8655C13.67 12.1209 13.964 12.6308 14.3278 12.9561C14.6225 13.2195 14.8627 13.3689 15.0956 13.3504C15.1494 13.1818 15.1478 12.9537 15.208 12.5505C15.2666 12.1562 15.318 11.9048 15.3429 11.643C15.1518 11.5643 14.7301 11.3587 14.4025 10.901C13.96 10.2826 13.9913 9.62724 14.0065 9.44092C14.164 9.82641 14.3382 10.1613 14.6699 10.4633C14.9036 10.6761 15.224 10.8303 15.4417 10.8263C15.4561 10.6978 15.4746 10.35 15.6224 9.9276C15.7348 9.60636 15.8416 9.3558 15.9115 9.21847C15.7509 9.10443 15.3598 8.8908 15.159 8.56073C14.8249 8.01221 14.5944 7.4131 14.6281 7.283C14.8787 7.70382 15.0168 7.92226 15.2072 8.07887C15.3389 8.18809 15.6208 8.32381 15.8657 8.26679C15.8962 8.25876 15.9452 8.23547 15.9637 8.21298C16.0127 8.15275 16.1629 7.41872 16.3002 6.95292C16.4648 6.45018 17.0278 5.55151 17.0278 5.55151C17.0278 5.55151 16.778 6.77865 16.6985 7.3609C16.5893 8.16319 16.3508 9.50758 16.456 9.20803C16.5339 8.98476 17.2181 8.38806 18.2292 8.18648C18.0983 8.21298 17.5763 8.61293 17.4004 8.79443C17.015 9.19196 16.9041 9.37748 16.5468 10.0481C16.3026 10.5058 16.0384 11.366 16.0593 12.5859C16.252 12.3257 16.7202 11.7595 17.4069 11.4109C18.0783 11.0696 18.622 10.8889 19.2034 10.7524C18.6926 11.0817 17.6173 11.7707 16.9893 12.5361C16.0055 13.7351 15.8111 14.425 15.8384 15.5027C15.987 15.2891 16.3428 14.8378 16.9764 14.5374C17.5932 14.2451 18.1521 14.2475 18.4116 14.2651C17.1354 14.9759 16.3155 15.7854 15.8384 16.3347C14.437 17.9458 13.9126 19.6909 13.5432 20.9188L13.5448 20.918Z" fill="url(#paint2_linear_455_470)"/>
<path d="M13.5448 20.918C13.3119 21.693 13.1786 22.3475 13.1023 22.7868L12.4196 21.2328L7.36411 9.42486C7.13442 8.88919 7.52874 8.29089 8.1134 8.29089H8.90686V7.14406H1.4292V8.29089H2.69649C3.41366 8.29089 4.06176 8.71813 4.34365 9.37748L10.9194 24.7303L11.9635 27.1694H12.8726L13.9166 24.7319L16.7058 18.2196L19.4901 24.7175L20.5398 27.1694H21.4376L22.4889 24.7175L29.0599 9.37748C29.3417 8.71733 29.9898 8.29089 30.707 8.29089H31.6651V7.14406H24.4862V8.29089H25.2909C25.8756 8.29089 26.2699 8.88919 26.0402 9.42486L20.906 21.84L19.0749 17.0142C20.7076 15.9597 21.8287 13.7656 21.8287 11.2286C21.8287 6.99709 17.4133 4.43601 16.7684 1.36816C15.6376 4.0208 11.9241 6.99789 11.9241 11.2286C11.9241 14.0106 13.356 16.3644 14.6884 17.023C14.6611 16.6937 14.7237 16.3693 14.7775 15.9541C14.8779 15.1879 14.9373 14.7109 15.0209 14.1913C14.796 14.0901 14.4282 13.8861 14.1053 13.4982C13.5608 12.8437 13.5159 12.1096 13.5118 11.8655C13.67 12.1209 13.964 12.6308 14.3278 12.9561C14.6225 13.2195 14.8627 13.3689 15.0956 13.3504C15.1494 13.1818 15.1478 12.9537 15.208 12.5505C15.2666 12.1562 15.318 11.9048 15.3429 11.643C15.1518 11.5643 14.7301 11.3587 14.4025 10.901C13.96 10.2826 13.9913 9.62724 14.0065 9.44092C14.164 9.82641 14.3382 10.1613 14.6699 10.4633C14.9036 10.6761 15.224 10.8303 15.4417 10.8263C15.4561 10.6978 15.4746 10.35 15.6224 9.9276C15.7348 9.60636 15.8416 9.3558 15.9115 9.21847C15.7509 9.10443 15.3598 8.8908 15.159 8.56073C14.8249 8.01221 14.5944 7.4131 14.6281 7.283C14.8787 7.70382 15.0168 7.92226 15.2072 8.07887C15.3389 8.18809 15.6208 8.32381 15.8657 8.26679C15.8962 8.25876 15.9452 8.23547 15.9637 8.21298C16.0127 8.15275 16.1629 7.41872 16.3002 6.95292C16.4648 6.45018 17.0278 5.55151 17.0278 5.55151C17.0278 5.55151 16.778 6.77865 16.6985 7.3609C16.5893 8.16319 16.3508 9.50758 16.456 9.20803C16.5339 8.98476 17.2181 8.38806 18.2292 8.18648C18.0983 8.21298 17.5763 8.61293 17.4004 8.79443C17.015 9.19196 16.9041 9.37748 16.5468 10.0481C16.3026 10.5058 16.0384 11.366 16.0593 12.5859C16.252 12.3257 16.7202 11.7595 17.4069 11.4109C18.0783 11.0696 18.622 10.8889 19.2034 10.7524C18.6926 11.0817 17.6173 11.7707 16.9893 12.5361C16.0055 13.7351 15.8111 14.425 15.8384 15.5027C15.987 15.2891 16.3428 14.8378 16.9764 14.5374C17.5932 14.2451 18.1521 14.2475 18.4116 14.2651C17.1354 14.9759 16.3155 15.7854 15.8384 16.3347C14.437 17.9458 13.9126 19.6909 13.5432 20.9188L13.5448 20.918Z" fill="url(#paint3_linear_455_470)"/>
<path d="M13.5448 20.918C13.3119 21.693 13.1786 22.3475 13.1023 22.7868L12.4196 21.2328L7.36411 9.42486C7.13442 8.88919 7.52874 8.29089 8.1134 8.29089H8.90686V7.14406H1.4292V8.29089H2.69649C3.41366 8.29089 4.06176 8.71813 4.34365 9.37748L10.9194 24.7303L11.9635 27.1694H12.8726L13.9166 24.7319L16.7058 18.2196L19.4901 24.7175L20.5398 27.1694H21.4376L22.4889 24.7175L29.0599 9.37748C29.3417 8.71733 29.9898 8.29089 30.707 8.29089H31.6651V7.14406H24.4862V8.29089H25.2909C25.8756 8.29089 26.2699 8.88919 26.0402 9.42486L20.906 21.84L19.0749 17.0142C20.7076 15.9597 21.8287 13.7656 21.8287 11.2286C21.8287 6.99709 17.4133 4.43601 16.7684 1.36816C15.6376 4.0208 11.9241 6.99789 11.9241 11.2286C11.9241 14.0106 13.356 16.3644 14.6884 17.023C14.6611 16.6937 14.7237 16.3693 14.7775 15.9541C14.8779 15.1879 14.9373 14.7109 15.0209 14.1913C14.796 14.0901 14.4282 13.8861 14.1053 13.4982C13.5608 12.8437 13.5159 12.1096 13.5118 11.8655C13.67 12.1209 13.964 12.6308 14.3278 12.9561C14.6225 13.2195 14.8627 13.3689 15.0956 13.3504C15.1494 13.1818 15.1478 12.9537 15.208 12.5505C15.2666 12.1562 15.318 11.9048 15.3429 11.643C15.1518 11.5643 14.7301 11.3587 14.4025 10.901C13.96 10.2826 13.9913 9.62724 14.0065 9.44092C14.164 9.82641 14.3382 10.1613 14.6699 10.4633C14.9036 10.6761 15.224 10.8303 15.4417 10.8263C15.4561 10.6978 15.4746 10.35 15.6224 9.9276C15.7348 9.60636 15.8416 9.3558 15.9115 9.21847C15.7509 9.10443 15.3598 8.8908 15.159 8.56073C14.8249 8.01221 14.5944 7.4131 14.6281 7.283C14.8787 7.70382 15.0168 7.92226 15.2072 8.07887C15.3389 8.18809 15.6208 8.32381 15.8657 8.26679C15.8962 8.25876 15.9452 8.23547 15.9637 8.21298C16.0127 8.15275 16.1629 7.41872 16.3002 6.95292C16.4648 6.45018 17.0278 5.55151 17.0278 5.55151C17.0278 5.55151 16.778 6.77865 16.6985 7.3609C16.5893 8.16319 16.3508 9.50758 16.456 9.20803C16.5339 8.98476 17.2181 8.38806 18.2292 8.18648C18.0983 8.21298 17.5763 8.61293 17.4004 8.79443C17.015 9.19196 16.9041 9.37748 16.5468 10.0481C16.3026 10.5058 16.0384 11.366 16.0593 12.5859C16.252 12.3257 16.7202 11.7595 17.4069 11.4109C18.0783 11.0696 18.622 10.8889 19.2034 10.7524C18.6926 11.0817 17.6173 11.7707 16.9893 12.5361C16.0055 13.7351 15.8111 14.425 15.8384 15.5027C15.987 15.2891 16.3428 14.8378 16.9764 14.5374C17.5932 14.2451 18.1521 14.2475 18.4116 14.2651C17.1354 14.9759 16.3155 15.7854 15.8384 16.3347C14.437 17.9458 13.9126 19.6909 13.5432 20.9188L13.5448 20.918Z" fill="url(#paint4_linear_455_470)"/>
</g>
<g filter="url(#filter1_di_455_470)">
<path d="M13.1244 22.7693C13.2007 22.33 13.334 21.6754 13.5669 20.9004L13.5653 20.9012L13.5661 20.8988C13.9354 19.671 14.4601 17.9271 15.8606 16.3172C16.3376 15.7678 17.1576 14.9583 18.4337 14.2476C18.1743 14.2299 17.6154 14.2275 16.9986 14.5198C16.3649 14.8202 16.0092 15.2715 15.8606 15.4851C15.8333 14.4074 16.0276 13.7175 17.0114 12.5185C17.6325 11.7617 18.6909 11.0795 19.2083 10.746L19.2256 10.7348C18.6441 10.8713 18.1004 11.052 17.4291 11.3933C16.7424 11.7419 16.2742 12.3081 16.0815 12.5683C16.0606 11.3484 16.3248 10.4883 16.5689 10.0305C16.9263 9.3599 17.0371 9.17438 17.4226 8.77685C17.5985 8.59535 18.1205 8.19541 18.2514 8.1689C17.2403 8.37048 16.5561 8.96719 16.4782 9.19045C16.373 9.49 16.6115 8.14561 16.7207 7.34332C16.8002 6.76107 17.05 5.53393 17.05 5.53393C17.05 5.53393 16.487 6.4326 16.3224 6.93534C16.185 7.40114 16.0349 8.13517 15.9859 8.19541C15.9674 8.21789 15.9184 8.24118 15.8879 8.24921C15.643 8.30623 15.3611 8.17051 15.2294 8.06129C15.039 7.90468 14.9009 7.68624 14.6503 7.26542C14.6166 7.39552 14.8471 7.99463 15.1812 8.54315C15.382 8.87322 15.7731 9.08685 15.9337 9.20089C15.8638 9.33822 15.757 9.58878 15.6446 9.91002C15.4968 10.3325 15.4783 10.6802 15.4639 10.8087C15.2462 10.8127 14.9258 10.6585 14.6921 10.4457C14.3604 10.1437 14.1861 9.80883 14.0287 9.42335C14.0135 9.60966 13.9821 10.265 14.4247 10.8834C14.7523 11.3411 15.1739 11.5467 15.3651 11.6254C15.3402 11.8873 15.2888 12.1386 15.2302 12.5329C15.1699 12.9361 15.1715 13.1642 15.1177 13.3328C14.8848 13.3513 14.6447 13.2019 14.35 12.9385C13.9862 12.6133 13.6922 12.1033 13.534 11.8479C13.538 12.092 13.583 12.8261 14.1275 13.4806C14.4504 13.8685 14.8182 14.0725 15.043 14.1737C14.9595 14.6933 14.9001 15.1703 14.7997 15.9365C14.7459 16.3517 14.6833 16.6761 14.7106 17.0054C13.3782 16.3469 11.9463 13.993 11.9463 11.211C11.9463 6.98032 15.6598 4.00322 16.7906 1.35059C17.4355 4.41843 21.8509 6.97951 21.8509 11.211C21.8509 13.748 20.7298 15.9421 19.0971 16.9966L16.7279 18.202L13.9388 24.7144L13.1244 22.7693Z" fill="url(#paint5_linear_455_470)" shape-rendering="crispEdges"/>
</g>
<path d="M18.4138 14.2471C18.4138 14.2471 16.8494 15.3329 15.3725 17.4378C14.2064 19.1002 13.6032 21.1047 13.2097 22.2443C13.2097 22.2443 13.4434 20.957 13.7815 20.0784C14.0594 19.354 14.5019 18.0554 15.1099 17.2788C15.4206 16.8812 15.8383 16.2404 16.3763 15.7521C17.5818 14.6583 18.4138 14.2471 18.4138 14.2471Z" fill="#00FFE0"/>
<path d="M18.4138 14.2471C18.4138 14.2471 16.8494 15.3329 15.3725 17.4378C14.2064 19.1002 13.6032 21.1047 13.2097 22.2443C13.2097 22.2443 13.4434 20.957 13.7815 20.0784C14.0594 19.354 14.5019 18.0554 15.1099 17.2788C15.4206 16.8812 15.8383 16.2404 16.3763 15.7521C17.5818 14.6583 18.4138 14.2471 18.4138 14.2471Z" fill="#00FFE0"/>
<path d="M18.4138 14.2471C18.4138 14.2471 16.8494 15.3329 15.3725 17.4378C14.2064 19.1002 13.6032 21.1047 13.2097 22.2443C13.2097 22.2443 13.4434 20.957 13.7815 20.0784C14.0594 19.354 14.5019 18.0554 15.1099 17.2788C15.4206 16.8812 15.8383 16.2404 16.3763 15.7521C17.5818 14.6583 18.4138 14.2471 18.4138 14.2471Z" fill="url(#paint6_linear_455_470)"/>
<path d="M19.2053 10.7332C19.1716 10.6882 17.9196 11.5218 16.9912 12.5169C16.7342 12.7923 16.4491 13.1369 16.2146 13.6171C16.058 13.9384 15.9833 14.1978 15.9616 14.2781C15.8251 14.7752 15.8219 15.2032 15.8403 15.4835C15.9327 14.9719 16.115 14.2732 16.5125 13.5312C17.5317 11.6302 19.2431 10.7838 19.2053 10.7332Z" fill="#00FFE0"/>
<path d="M19.2053 10.7332C19.1716 10.6882 17.9196 11.5218 16.9912 12.5169C16.7342 12.7923 16.4491 13.1369 16.2146 13.6171C16.058 13.9384 15.9833 14.1978 15.9616 14.2781C15.8251 14.7752 15.8219 15.2032 15.8403 15.4835C15.9327 14.9719 16.115 14.2732 16.5125 13.5312C17.5317 11.6302 19.2431 10.7838 19.2053 10.7332Z" fill="#00FFE0"/>
<path d="M19.2053 10.7332C19.1716 10.6882 17.9196 11.5218 16.9912 12.5169C16.7342 12.7923 16.4491 13.1369 16.2146 13.6171C16.058 13.9384 15.9833 14.1978 15.9616 14.2781C15.8251 14.7752 15.8219 15.2032 15.8403 15.4835C15.9327 14.9719 16.115 14.2732 16.5125 13.5312C17.5317 11.6302 19.2431 10.7838 19.2053 10.7332Z" fill="url(#paint7_linear_455_470)"/>
<path d="M16.9366 6.02734C16.8298 6.52286 16.7567 6.93404 16.7085 7.22477C16.5455 8.20776 16.4338 9.23894 16.4338 9.23894C16.4732 9.1763 16.5117 9.11205 16.5487 9.04539C16.5487 8.6583 16.7013 7.33881 16.9366 6.02734Z" fill="#00FFE0"/>
<path d="M16.9366 6.02734C16.8298 6.52286 16.7567 6.93404 16.7085 7.22477C16.5455 8.20776 16.4338 9.23894 16.4338 9.23894C16.4732 9.1763 16.5117 9.11205 16.5487 9.04539C16.5487 8.6583 16.7013 7.33881 16.9366 6.02734Z" fill="#00FFE0"/>
<path d="M16.9366 6.02734C16.8298 6.52286 16.7567 6.93404 16.7085 7.22477C16.5455 8.20776 16.4338 9.23894 16.4338 9.23894C16.4732 9.1763 16.5117 9.11205 16.5487 9.04539C16.5487 8.6583 16.7013 7.33881 16.9366 6.02734Z" fill="url(#paint8_linear_455_470)"/>
<path d="M16.4796 10.1125C17.0634 8.82035 18.0625 8.25256 18.0625 8.25256C18.0472 8.2365 17.7035 8.54007 17.3775 8.87657C17.2506 9.00748 17.1534 9.11991 17.0667 9.23556C17.0667 9.23556 16.7422 9.65397 16.5205 10.1728C16.1078 11.1397 16.0339 12.7106 16.0331 12.7106C16.0331 12.7106 15.9158 11.3598 16.4796 10.1125Z" fill="#00FFE0"/>
<path d="M16.4796 10.1125C17.0634 8.82035 18.0625 8.25256 18.0625 8.25256C18.0472 8.2365 17.7035 8.54007 17.3775 8.87657C17.2506 9.00748 17.1534 9.11991 17.0667 9.23556C17.0667 9.23556 16.7422 9.65397 16.5205 10.1728C16.1078 11.1397 16.0339 12.7106 16.0331 12.7106C16.0331 12.7106 15.9158 11.3598 16.4796 10.1125Z" fill="#00FFE0"/>
<path d="M16.4796 10.1125C17.0634 8.82035 18.0625 8.25256 18.0625 8.25256C18.0472 8.2365 17.7035 8.54007 17.3775 8.87657C17.2506 9.00748 17.1534 9.11991 17.0667 9.23556C17.0667 9.23556 16.7422 9.65397 16.5205 10.1728C16.1078 11.1397 16.0339 12.7106 16.0331 12.7106C16.0331 12.7106 15.9158 11.3598 16.4796 10.1125Z" fill="url(#paint9_linear_455_470)"/>
</g>
<path d="M20.5669 27.1505H20.3273L16.6836 18.2631L16.7263 18.1777C18.7474 22.9397 20.5669 27.1505 20.5669 27.1505Z" fill="#00FFE0"/>
<path d="M20.5669 27.1505H20.3273L16.6836 18.2631L16.7263 18.1777C18.7474 22.9397 20.5669 27.1505 20.5669 27.1505Z" fill="#389984"/>
<path d="M20.5669 27.1505H20.3273L16.6836 18.2631L16.7263 18.1777C18.7474 22.9397 20.5669 27.1505 20.5669 27.1505Z" fill="#00FFE0"/>
<path d="M12.0156 27.1503H11.776L4.1814 9.04688C4.1814 9.04688 4.4374 9.38821 4.77873 10.1562C7.68765 16.7013 12.0156 27.1503 12.0156 27.1503Z" fill="#00FFE0"/>
<path d="M12.0156 27.1503H11.776L4.1814 9.04688C4.1814 9.04688 4.4374 9.38821 4.77873 10.1562C7.68765 16.7013 12.0156 27.1503 12.0156 27.1503Z" fill="#389984"/>
<path d="M12.0156 27.1503H11.776L4.1814 9.04688C4.1814 9.04688 4.4374 9.38821 4.77873 10.1562C7.68765 16.7013 12.0156 27.1503 12.0156 27.1503Z" fill="#00FFE0"/>
<path d="M20.9086 21.8455C20.9086 21.8455 24.083 14.1655 26.0712 9.42953C26.1024 9.35533 26.1054 9.13086 26.1054 9.13086L20.8232 21.5895L20.9086 21.8455Z" fill="#00FFE0"/>
<path d="M20.9086 21.8455C20.9086 21.8455 24.083 14.1655 26.0712 9.42953C26.1024 9.35533 26.1054 9.13086 26.1054 9.13086L20.8232 21.5895L20.9086 21.8455Z" fill="url(#paint10_linear_455_470)"/>
<path d="M20.9086 21.8455C20.9086 21.8455 24.083 14.1655 26.0712 9.42953C26.1024 9.35533 26.1054 9.13086 26.1054 9.13086L20.8232 21.5895L20.9086 21.8455Z" fill="#00FFE0"/>
<path d="M24.406 7.08301H31.6593V7.16834H24.406V7.08301Z" fill="#00FFE0"/>
<path d="M24.406 7.08301H31.6593V7.16834H24.406V7.08301Z" fill="url(#paint11_linear_455_470)"/>
<path d="M24.406 7.08301H31.6593V7.16834H24.406V7.08301Z" fill="#00FFE0"/>
<path d="M1.36621 7.08203H8.90966V7.16736H1.36621V7.08203Z" fill="#00FFE0"/>
<path d="M1.36621 7.08203H8.90966V7.16736H1.36621V7.08203Z" fill="url(#paint12_linear_455_470)"/>
<path d="M1.36621 7.08203H8.90966V7.16736H1.36621V7.08203Z" fill="#00FFE0"/>
<rect x="1.36621" y="8.27832" width="1.19466" height="0.0853331" transform="rotate(-90 1.36621 8.27832)" fill="#00FFE0"/>
<rect x="1.36621" y="8.27832" width="1.19466" height="0.0853331" transform="rotate(-90 1.36621 8.27832)" fill="url(#paint13_linear_455_470)"/>
<rect x="1.36621" y="8.27832" width="1.19466" height="0.0853331" transform="rotate(-90 1.36621 8.27832)" fill="#00FFE0"/>
<rect x="24.406" y="8.27832" width="1.19466" height="0.0853331" transform="rotate(-90 24.406 8.27832)" fill="#00FFE0"/>
<rect x="24.406" y="8.27832" width="1.19466" height="0.0853331" transform="rotate(-90 24.406 8.27832)" fill="url(#paint14_linear_455_470)"/>
<rect x="24.406" y="8.27832" width="1.19466" height="0.0853331" transform="rotate(-90 24.406 8.27832)" fill="#00FFE0"/>
<g filter="url(#filter2_d_455_470)">
<path d="M30.8885 26.3027C29.0088 26.3027 28.0689 25.3629 28.0689 23.4832V18.784C28.0689 16.9044 29.0088 15.9645 30.8885 15.9645H33.0501C34.9298 15.9645 35.8696 16.9044 35.8696 18.784V19.2821L29.9768 23.8404C30.0645 24.3541 30.3684 24.611 30.8885 24.611H33.0501C33.6766 24.611 33.9899 24.2351 33.9899 23.4832V22.9851L35.7756 22.1393H35.8696V23.4832C35.8696 25.3629 34.9298 26.3027 33.0501 26.3027H30.8885ZM29.9486 21.8761L33.9805 18.6243C33.9429 17.9789 33.6328 17.6562 33.0501 17.6562H30.8885C30.2619 17.6562 29.9486 18.0322 29.9486 18.784V21.8761ZM39.159 26.6787V12.5811L40.9447 11.7352H41.0387V25.8328L39.253 26.6787H39.159ZM44.7981 26.6787V12.5811L46.5837 11.7352H46.6777V25.8328L44.892 26.6787H44.7981ZM50.4371 26.6787V15.4006C50.4371 13.2077 51.5336 12.1112 53.7265 12.1112H56.64C58.833 12.1112 59.9295 13.2077 59.9295 15.4006V25.8328L58.1438 26.6787H58.0498V15.4006C58.0498 14.3355 57.5799 13.8029 56.64 13.8029H53.7265C52.7867 13.8029 52.3168 14.3355 52.3168 15.4006V25.8328L50.5311 26.6787H50.4371ZM66.0384 26.3027C64.1587 26.3027 63.2189 25.3629 63.2189 23.4832V18.784C63.2189 16.9044 64.1587 15.9645 66.0384 15.9645H68.2C70.0797 15.9645 71.0195 16.9044 71.0195 18.784V19.2821L65.1268 23.8404C65.2145 24.3541 65.5184 24.611 66.0384 24.611H68.2C68.8266 24.611 69.1399 24.2351 69.1399 23.4832V22.9851L70.9256 22.1393H71.0195V23.4832C71.0195 25.3629 70.0797 26.3027 68.2 26.3027H66.0384ZM65.0986 21.8761L69.1305 18.6243C69.0929 17.9789 68.7827 17.6562 68.2 17.6562H66.0384C65.4118 17.6562 65.0986 18.0322 65.0986 18.784V21.8761ZM72.8992 26.3027V26.2088L77.8146 17.675H72.9932V17.581L73.7545 15.9645H80.8221V16.0585L75.9161 24.5922H80.916V24.6862L80.1548 26.3027H72.8992ZM81.8653 26.3027V26.2088L86.7806 17.675H81.9593V17.581L82.7205 15.9645H89.7881V16.0585L84.8822 24.5922H89.8821V24.6862L89.1208 26.3027H81.8653ZM94.1208 24.611H96.0944C96.721 24.611 97.0343 24.2351 97.0343 23.4832V22.1956C97.0343 21.4438 96.721 21.0678 96.0944 21.0678H94.1208C93.4942 21.0678 93.1809 21.4438 93.1809 22.1956V23.4832C93.1809 24.2351 93.4942 24.611 94.1208 24.611ZM94.1208 26.3027C92.2411 26.3027 91.3013 25.3629 91.3013 23.4832V22.1956C91.3013 20.316 92.2411 19.3761 94.1208 19.3761H96.0944C96.4202 19.3761 96.7335 19.4701 97.0343 19.6581V18.784C97.0343 18.0322 96.721 17.6562 96.0944 17.6562H92.7298V17.5622L93.4817 15.9645H96.0944C97.9741 15.9645 98.9139 16.9044 98.9139 18.784V25.8328L97.1282 26.6787H97.0343V26.0208C96.7962 26.2088 96.4829 26.3027 96.0944 26.3027H94.1208Z" fill="#00FFE0"/>
<path d="M30.8885 26.3027C29.0088 26.3027 28.0689 25.3629 28.0689 23.4832V18.784C28.0689 16.9044 29.0088 15.9645 30.8885 15.9645H33.0501C34.9298 15.9645 35.8696 16.9044 35.8696 18.784V19.2821L29.9768 23.8404C30.0645 24.3541 30.3684 24.611 30.8885 24.611H33.0501C33.6766 24.611 33.9899 24.2351 33.9899 23.4832V22.9851L35.7756 22.1393H35.8696V23.4832C35.8696 25.3629 34.9298 26.3027 33.0501 26.3027H30.8885ZM29.9486 21.8761L33.9805 18.6243C33.9429 17.9789 33.6328 17.6562 33.0501 17.6562H30.8885C30.2619 17.6562 29.9486 18.0322 29.9486 18.784V21.8761ZM39.159 26.6787V12.5811L40.9447 11.7352H41.0387V25.8328L39.253 26.6787H39.159ZM44.7981 26.6787V12.5811L46.5837 11.7352H46.6777V25.8328L44.892 26.6787H44.7981ZM50.4371 26.6787V15.4006C50.4371 13.2077 51.5336 12.1112 53.7265 12.1112H56.64C58.833 12.1112 59.9295 13.2077 59.9295 15.4006V25.8328L58.1438 26.6787H58.0498V15.4006C58.0498 14.3355 57.5799 13.8029 56.64 13.8029H53.7265C52.7867 13.8029 52.3168 14.3355 52.3168 15.4006V25.8328L50.5311 26.6787H50.4371ZM66.0384 26.3027C64.1587 26.3027 63.2189 25.3629 63.2189 23.4832V18.784C63.2189 16.9044 64.1587 15.9645 66.0384 15.9645H68.2C70.0797 15.9645 71.0195 16.9044 71.0195 18.784V19.2821L65.1268 23.8404C65.2145 24.3541 65.5184 24.611 66.0384 24.611H68.2C68.8266 24.611 69.1399 24.2351 69.1399 23.4832V22.9851L70.9256 22.1393H71.0195V23.4832C71.0195 25.3629 70.0797 26.3027 68.2 26.3027H66.0384ZM65.0986 21.8761L69.1305 18.6243C69.0929 17.9789 68.7827 17.6562 68.2 17.6562H66.0384C65.4118 17.6562 65.0986 18.0322 65.0986 18.784V21.8761ZM72.8992 26.3027V26.2088L77.8146 17.675H72.9932V17.581L73.7545 15.9645H80.8221V16.0585L75.9161 24.5922H80.916V24.6862L80.1548 26.3027H72.8992ZM81.8653 26.3027V26.2088L86.7806 17.675H81.9593V17.581L82.7205 15.9645H89.7881V16.0585L84.8822 24.5922H89.8821V24.6862L89.1208 26.3027H81.8653ZM94.1208 24.611H96.0944C96.721 24.611 97.0343 24.2351 97.0343 23.4832V22.1956C97.0343 21.4438 96.721 21.0678 96.0944 21.0678H94.1208C93.4942 21.0678 93.1809 21.4438 93.1809 22.1956V23.4832C93.1809 24.2351 93.4942 24.611 94.1208 24.611ZM94.1208 26.3027C92.2411 26.3027 91.3013 25.3629 91.3013 23.4832V22.1956C91.3013 20.316 92.2411 19.3761 94.1208 19.3761H96.0944C96.4202 19.3761 96.7335 19.4701 97.0343 19.6581V18.784C97.0343 18.0322 96.721 17.6562 96.0944 17.6562H92.7298V17.5622L93.4817 15.9645H96.0944C97.9741 15.9645 98.9139 16.9044 98.9139 18.784V25.8328L97.1282 26.6787H97.0343V26.0208C96.7962 26.2088 96.4829 26.3027 96.0944 26.3027H94.1208Z" fill="url(#paint15_linear_455_470)"/>
<path d="M30.8885 26.3027C29.0088 26.3027 28.0689 25.3629 28.0689 23.4832V18.784C28.0689 16.9044 29.0088 15.9645 30.8885 15.9645H33.0501C34.9298 15.9645 35.8696 16.9044 35.8696 18.784V19.2821L29.9768 23.8404C30.0645 24.3541 30.3684 24.611 30.8885 24.611H33.0501C33.6766 24.611 33.9899 24.2351 33.9899 23.4832V22.9851L35.7756 22.1393H35.8696V23.4832C35.8696 25.3629 34.9298 26.3027 33.0501 26.3027H30.8885ZM29.9486 21.8761L33.9805 18.6243C33.9429 17.9789 33.6328 17.6562 33.0501 17.6562H30.8885C30.2619 17.6562 29.9486 18.0322 29.9486 18.784V21.8761ZM39.159 26.6787V12.5811L40.9447 11.7352H41.0387V25.8328L39.253 26.6787H39.159ZM44.7981 26.6787V12.5811L46.5837 11.7352H46.6777V25.8328L44.892 26.6787H44.7981ZM50.4371 26.6787V15.4006C50.4371 13.2077 51.5336 12.1112 53.7265 12.1112H56.64C58.833 12.1112 59.9295 13.2077 59.9295 15.4006V25.8328L58.1438 26.6787H58.0498V15.4006C58.0498 14.3355 57.5799 13.8029 56.64 13.8029H53.7265C52.7867 13.8029 52.3168 14.3355 52.3168 15.4006V25.8328L50.5311 26.6787H50.4371ZM66.0384 26.3027C64.1587 26.3027 63.2189 25.3629 63.2189 23.4832V18.784C63.2189 16.9044 64.1587 15.9645 66.0384 15.9645H68.2C70.0797 15.9645 71.0195 16.9044 71.0195 18.784V19.2821L65.1268 23.8404C65.2145 24.3541 65.5184 24.611 66.0384 24.611H68.2C68.8266 24.611 69.1399 24.2351 69.1399 23.4832V22.9851L70.9256 22.1393H71.0195V23.4832C71.0195 25.3629 70.0797 26.3027 68.2 26.3027H66.0384ZM65.0986 21.8761L69.1305 18.6243C69.0929 17.9789 68.7827 17.6562 68.2 17.6562H66.0384C65.4118 17.6562 65.0986 18.0322 65.0986 18.784V21.8761ZM72.8992 26.3027V26.2088L77.8146 17.675H72.9932V17.581L73.7545 15.9645H80.8221V16.0585L75.9161 24.5922H80.916V24.6862L80.1548 26.3027H72.8992ZM81.8653 26.3027V26.2088L86.7806 17.675H81.9593V17.581L82.7205 15.9645H89.7881V16.0585L84.8822 24.5922H89.8821V24.6862L89.1208 26.3027H81.8653ZM94.1208 24.611H96.0944C96.721 24.611 97.0343 24.2351 97.0343 23.4832V22.1956C97.0343 21.4438 96.721 21.0678 96.0944 21.0678H94.1208C93.4942 21.0678 93.1809 21.4438 93.1809 22.1956V23.4832C93.1809 24.2351 93.4942 24.611 94.1208 24.611ZM94.1208 26.3027C92.2411 26.3027 91.3013 25.3629 91.3013 23.4832V22.1956C91.3013 20.316 92.2411 19.3761 94.1208 19.3761H96.0944C96.4202 19.3761 96.7335 19.4701 97.0343 19.6581V18.784C97.0343 18.0322 96.721 17.6562 96.0944 17.6562H92.7298V17.5622L93.4817 15.9645H96.0944C97.9741 15.9645 98.9139 16.9044 98.9139 18.784V25.8328L97.1282 26.6787H97.0343V26.0208C96.7962 26.2088 96.4829 26.3027 96.0944 26.3027H94.1208Z" fill="url(#paint16_linear_455_470)"/>
<path d="M30.8885 26.3027C29.0088 26.3027 28.0689 25.3629 28.0689 23.4832V18.784C28.0689 16.9044 29.0088 15.9645 30.8885 15.9645H33.0501C34.9298 15.9645 35.8696 16.9044 35.8696 18.784V19.2821L29.9768 23.8404C30.0645 24.3541 30.3684 24.611 30.8885 24.611H33.0501C33.6766 24.611 33.9899 24.2351 33.9899 23.4832V22.9851L35.7756 22.1393H35.8696V23.4832C35.8696 25.3629 34.9298 26.3027 33.0501 26.3027H30.8885ZM29.9486 21.8761L33.9805 18.6243C33.9429 17.9789 33.6328 17.6562 33.0501 17.6562H30.8885C30.2619 17.6562 29.9486 18.0322 29.9486 18.784V21.8761ZM39.159 26.6787V12.5811L40.9447 11.7352H41.0387V25.8328L39.253 26.6787H39.159ZM44.7981 26.6787V12.5811L46.5837 11.7352H46.6777V25.8328L44.892 26.6787H44.7981ZM50.4371 26.6787V15.4006C50.4371 13.2077 51.5336 12.1112 53.7265 12.1112H56.64C58.833 12.1112 59.9295 13.2077 59.9295 15.4006V25.8328L58.1438 26.6787H58.0498V15.4006C58.0498 14.3355 57.5799 13.8029 56.64 13.8029H53.7265C52.7867 13.8029 52.3168 14.3355 52.3168 15.4006V25.8328L50.5311 26.6787H50.4371ZM66.0384 26.3027C64.1587 26.3027 63.2189 25.3629 63.2189 23.4832V18.784C63.2189 16.9044 64.1587 15.9645 66.0384 15.9645H68.2C70.0797 15.9645 71.0195 16.9044 71.0195 18.784V19.2821L65.1268 23.8404C65.2145 24.3541 65.5184 24.611 66.0384 24.611H68.2C68.8266 24.611 69.1399 24.2351 69.1399 23.4832V22.9851L70.9256 22.1393H71.0195V23.4832C71.0195 25.3629 70.0797 26.3027 68.2 26.3027H66.0384ZM65.0986 21.8761L69.1305 18.6243C69.0929 17.9789 68.7827 17.6562 68.2 17.6562H66.0384C65.4118 17.6562 65.0986 18.0322 65.0986 18.784V21.8761ZM72.8992 26.3027V26.2088L77.8146 17.675H72.9932V17.581L73.7545 15.9645H80.8221V16.0585L75.9161 24.5922H80.916V24.6862L80.1548 26.3027H72.8992ZM81.8653 26.3027V26.2088L86.7806 17.675H81.9593V17.581L82.7205 15.9645H89.7881V16.0585L84.8822 24.5922H89.8821V24.6862L89.1208 26.3027H81.8653ZM94.1208 24.611H96.0944C96.721 24.611 97.0343 24.2351 97.0343 23.4832V22.1956C97.0343 21.4438 96.721 21.0678 96.0944 21.0678H94.1208C93.4942 21.0678 93.1809 21.4438 93.1809 22.1956V23.4832C93.1809 24.2351 93.4942 24.611 94.1208 24.611ZM94.1208 26.3027C92.2411 26.3027 91.3013 25.3629 91.3013 23.4832V22.1956C91.3013 20.316 92.2411 19.3761 94.1208 19.3761H96.0944C96.4202 19.3761 96.7335 19.4701 97.0343 19.6581V18.784C97.0343 18.0322 96.721 17.6562 96.0944 17.6562H92.7298V17.5622L93.4817 15.9645H96.0944C97.9741 15.9645 98.9139 16.9044 98.9139 18.784V25.8328L97.1282 26.6787H97.0343V26.0208C96.7962 26.2088 96.4829 26.3027 96.0944 26.3027H94.1208Z" fill="url(#paint17_linear_455_470)"/>
</g>
<defs>
<filter id="filter0_ddii_455_470" x="0.0638699" y="0.00283474" width="33.6012" height="29.1661" filterUnits="userSpaceOnUse" color-interpolation-filters="sRGB">
<feFlood flood-opacity="0" result="BackgroundImageFix"/>
<feColorMatrix in="SourceAlpha" type="matrix" values="0 0 0 0 0 0 0 0 0 0 0 0 0 0 0 0 0 0 127 0" result="hardAlpha"/>
<feOffset dx="1" dy="1"/>
<feGaussianBlur stdDeviation="0.5"/>
<feComposite in2="hardAlpha" operator="out"/>
<feColorMatrix type="matrix" values="0 0 0 0 0 0 0 0 0 0 0 0 0 0 0 0 0 0 0.45 0"/>
<feBlend mode="normal" in2="BackgroundImageFix" result="effect1_dropShadow_455_470"/>
<feColorMatrix in="SourceAlpha" type="matrix" values="0 0 0 0 0 0 0 0 0 0 0 0 0 0 0 0 0 0 127 0" result="hardAlpha"/>
<feOffset dx="-0.511998" dy="-0.511998"/>
<feGaussianBlur stdDeviation="0.426665"/>
<feComposite in2="hardAlpha" operator="out"/>
<feColorMatrix type="matrix" values="0 0 0 0 0.531527 0 0 0 0 0.718916 0 0 0 0 1 0 0 0 0.1 0"/>
<feBlend mode="normal" in2="effect1_dropShadow_455_470" result="effect2_dropShadow_455_470"/>
<feBlend mode="normal" in="SourceGraphic" in2="effect2_dropShadow_455_470" result="shape"/>
<feColorMatrix in="SourceAlpha" type="matrix" values="0 0 0 0 0 0 0 0 0 0 0 0 0 0 0 0 0 0 127 0" result="hardAlpha"/>
<feOffset dx="-0.170666" dy="-0.170666"/>
<feGaussianBlur stdDeviation="0.213333"/>
<feComposite in2="hardAlpha" operator="arithmetic" k2="-1" k3="1"/>
<feColorMatrix type="matrix" values="0 0 0 0 0 0 0 0 0 0 0 0 0 0 0 0 0 0 0.45 0"/>
<feBlend mode="normal" in2="shape" result="effect3_innerShadow_455_470"/>
<feColorMatrix in="SourceAlpha" type="matrix" values="0 0 0 0 0 0 0 0 0 0 0 0 0 0 0 0 0 0 127 0" result="hardAlpha"/>
<feOffset dx="0.255999" dy="0.255999"/>
<feGaussianBlur stdDeviation="0.128"/>
<feComposite in2="hardAlpha" operator="arithmetic" k2="-1" k3="1"/>
<feColorMatrix type="matrix" values="0 0 0 0 0.977848 0 0 0 0 0.986709 0 0 0 0 1 0 0 0 0.5 0"/>
<feBlend mode="normal" in2="effect3_innerShadow_455_470" result="effect4_innerShadow_455_470"/>
</filter>
<filter id="filter1_di_455_470" x="11.605" y="0.497255" width="11.6112" height="25.0709" filterUnits="userSpaceOnUse" color-interpolation-filters="sRGB">
<feFlood flood-opacity="0" result="BackgroundImageFix"/>
<feColorMatrix in="SourceAlpha" type="matrix" values="0 0 0 0 0 0 0 0 0 0 0 0 0 0 0 0 0 0 127 0" result="hardAlpha"/>
<feOffset dx="0.511998"/>
<feGaussianBlur stdDeviation="0.426665"/>
<feComposite in2="hardAlpha" operator="out"/>
<feColorMatrix type="matrix" values="0 0 0 0 0 0 0 0 0 0 0 0 0 0 0 0 0 0 0.25 0"/>
<feBlend mode="normal" in2="BackgroundImageFix" result="effect1_dropShadow_455_470"/>
<feBlend mode="normal" in="SourceGraphic" in2="effect1_dropShadow_455_470" result="shape"/>
<feColorMatrix in="SourceAlpha" type="matrix" values="0 0 0 0 0 0 0 0 0 0 0 0 0 0 0 0 0 0 127 0" result="hardAlpha"/>
<feOffset dx="0.0853331" dy="0.0853331"/>
<feGaussianBlur stdDeviation="0.0426665"/>
<feComposite in2="hardAlpha" operator="arithmetic" k2="-1" k3="1"/>
<feColorMatrix type="matrix" values="0 0 0 0 1 0 0 0 0 1 0 0 0 0 1 0 0 0 0.5 0"/>
<feBlend mode="normal" in2="shape" result="effect2_innerShadow_455_470"/>
</filter>
<filter id="filter2_d_455_470" x="28.0688" y="11.7354" width="72.845" height="16.9434" filterUnits="userSpaceOnUse" color-interpolation-filters="sRGB">
<feFlood flood-opacity="0" result="BackgroundImageFix"/>
<feColorMatrix in="SourceAlpha" type="matrix" values="0 0 0 0 0 0 0 0 0 0 0 0 0 0 0 0 0 0 127 0" result="hardAlpha"/>
<feOffset dx="1" dy="1"/>
<feGaussianBlur stdDeviation="0.5"/>
<feComposite in2="hardAlpha" operator="out"/>
<feColorMatrix type="matrix" values="0 0 0 0 0 0 0 0 0 0 0 0 0 0 0 0 0 0 0.25 0"/>
<feBlend mode="normal" in2="BackgroundImageFix" result="effect1_dropShadow_455_470"/>
<feBlend mode="normal" in="SourceGraphic" in2="effect1_dropShadow_455_470" result="shape"/>
</filter>
<linearGradient id="paint0_linear_455_470" x1="14.1616" y1="0.683594" x2="14.1616" y2="17.0026" gradientUnits="userSpaceOnUse">
<stop stop-color="#00FFE0"/>
<stop offset="1" stop-color="#00FFE0" stop-opacity="0"/>
</linearGradient>
<linearGradient id="paint1_linear_455_470" x1="1.4292" y1="14.2684" x2="31.6667" y2="14.2684" gradientUnits="userSpaceOnUse">
<stop stop-color="white"/>
<stop offset="1" stop-color="#A2A2A2"/>
</linearGradient>
<linearGradient id="paint2_linear_455_470" x1="18.2404" y1="1.36816" x2="18.1058" y2="27.1687" gradientUnits="userSpaceOnUse">
<stop stop-color="#65BEAC" stop-opacity="0.97"/>
<stop offset="0.984375" stop-color="#3E8575"/>
</linearGradient>
<linearGradient id="paint3_linear_455_470" x1="18.2404" y1="1.36816" x2="18.1058" y2="27.1687" gradientUnits="userSpaceOnUse">
<stop stop-color="#65BEAC" stop-opacity="0.97"/>
<stop offset="0.984375" stop-color="#2F6A5D"/>
</linearGradient>
<linearGradient id="paint4_linear_455_470" x1="18.2404" y1="1.36816" x2="18.1058" y2="27.1687" gradientUnits="userSpaceOnUse">
<stop stop-color="#00FFD1" stop-opacity="0.97"/>
<stop offset="0.984375" stop-color="#0A4040"/>
</linearGradient>
<linearGradient id="paint5_linear_455_470" x1="16.8986" y1="1.35059" x2="20.0529" y2="20.2945" gradientUnits="userSpaceOnUse">
<stop stop-color="#00FFD1"/>
<stop offset="0.359531" stop-color="#27E0B3"/>
<stop offset="0.910836" stop-color="#167436" stop-opacity="0"/>
<stop offset="0.992527" stop-color="#216649" stop-opacity="0"/>
</linearGradient>
<linearGradient id="paint6_linear_455_470" x1="15.8118" y1="14.2471" x2="15.8118" y2="22.2443" gradientUnits="userSpaceOnUse">
<stop stop-color="#00FFE0"/>
<stop offset="1" stop-color="#00FFE0"/>
</linearGradient>
<linearGradient id="paint7_linear_455_470" x1="17.5191" y1="10.7314" x2="17.5191" y2="15.4835" gradientUnits="userSpaceOnUse">
<stop stop-color="#00FFE0"/>
<stop offset="1" stop-color="#00FFE0"/>
</linearGradient>
<linearGradient id="paint8_linear_455_470" x1="16.6852" y1="6.02734" x2="16.6852" y2="9.23894" gradientUnits="userSpaceOnUse">
<stop stop-color="#00FFE0"/>
<stop offset="1" stop-color="#00FFE0"/>
</linearGradient>
<linearGradient id="paint9_linear_455_470" x1="17.0427" y1="8.25195" x2="17.0427" y2="12.7106" gradientUnits="userSpaceOnUse">
<stop stop-color="#00FFE0"/>
<stop offset="1" stop-color="#00FFE0"/>
</linearGradient>
<linearGradient id="paint10_linear_455_470" x1="23.4643" y1="9.13086" x2="23.4643" y2="21.8455" gradientUnits="userSpaceOnUse">
<stop stop-color="#00FFE0"/>
<stop offset="1" stop-color="#00FFE0"/>
</linearGradient>
<linearGradient id="paint11_linear_455_470" x1="28.0327" y1="7.08301" x2="28.0327" y2="7.16834" gradientUnits="userSpaceOnUse">
<stop stop-color="#00FFE0"/>
<stop offset="1" stop-color="#00FFE0"/>
</linearGradient>
<linearGradient id="paint12_linear_455_470" x1="5.13793" y1="7.08203" x2="5.13793" y2="7.16736" gradientUnits="userSpaceOnUse">
<stop stop-color="#00FFE0"/>
<stop offset="1" stop-color="#00FFE0"/>
</linearGradient>
<linearGradient id="paint13_linear_455_470" x1="1.96354" y1="8.27832" x2="1.96354" y2="8.36365" gradientUnits="userSpaceOnUse">
<stop stop-color="#00FFE0"/>
<stop offset="1" stop-color="#00FFE0"/>
</linearGradient>
<linearGradient id="paint14_linear_455_470" x1="25.0033" y1="8.27832" x2="25.0033" y2="8.36365" gradientUnits="userSpaceOnUse">
<stop stop-color="#00FFE0"/>
<stop offset="1" stop-color="#00FFE0"/>
</linearGradient>
<linearGradient id="paint15_linear_455_470" x1="67.8032" y1="8.30273" x2="67.7595" y2="31.3027" gradientUnits="userSpaceOnUse">
<stop stop-color="#65BEAC" stop-opacity="0.97"/>
<stop offset="0.984375" stop-color="#3E8575"/>
</linearGradient>
<linearGradient id="paint16_linear_455_470" x1="67.8032" y1="8.30273" x2="67.7595" y2="31.3027" gradientUnits="userSpaceOnUse">
<stop stop-color="#65BEAC" stop-opacity="0.97"/>
<stop offset="0.984375" stop-color="#2F6A5D"/>
</linearGradient>
<linearGradient id="paint17_linear_455_470" x1="67.8032" y1="8.30273" x2="67.7595" y2="31.3027" gradientUnits="userSpaceOnUse">
<stop stop-color="#00FFD1" stop-opacity="0.97"/>
<stop offset="0.984375" stop-color="#0A4040"/>
</linearGradient>
<clipPath id="clip0_455_470">
<rect width="33.4506" height="28.9279" fill="white"/>
</clipPath>
</defs>
</svg>
