<svg width="13" height="18" viewBox="0 0 13 18" fill="none" xmlns="http://www.w3.org/2000/svg">
<path fill-rule="evenodd" clip-rule="evenodd" d="M6.21887 1.25C4.83816 1.25 3.71887 2.36929 3.71887 3.75V8.75C3.71887 10.1307 4.83816 11.25 6.21887 11.25C7.59958 11.25 8.71887 10.1307 8.71887 8.75V3.75C8.71887 2.36929 7.59958 1.25 6.21887 1.25ZM2.46887 3.75C2.46887 1.67893 4.1478 0 6.21887 0C8.28994 0 9.96887 1.67893 9.96887 3.75V8.75C9.96887 10.8211 8.28994 12.5 6.21887 12.5C4.1478 12.5 2.46887 10.8211 2.46887 8.75V3.75Z" fill="#1AB192"/>
<path fill-rule="evenodd" clip-rule="evenodd" d="M6.21887 13.75C6.56405 13.75 6.84387 14.0298 6.84387 14.375V16.875C6.84387 17.2202 6.56405 17.5 6.21887 17.5C5.87369 17.5 5.59387 17.2202 5.59387 16.875V14.375C5.59387 14.0298 5.87369 13.75 6.21887 13.75Z" fill="#1AB192"/>
<path fill-rule="evenodd" clip-rule="evenodd" d="M0.551583 8.75432C0.894367 8.71374 1.20515 8.95872 1.24573 9.30151C1.38988 10.5192 1.9758 11.6417 2.89241 12.4562C3.80902 13.2707 4.99261 13.7206 6.21881 13.7206C7.44501 13.7206 8.6286 13.2707 9.54521 12.4562C10.4618 11.6417 11.0477 10.5192 11.1919 9.30151C11.2325 8.95872 11.5433 8.71374 11.886 8.75432C12.2288 8.7949 12.4738 9.10568 12.4332 9.44846C12.2531 10.9701 11.5209 12.3728 10.3755 13.3906C9.23011 14.4084 7.75109 14.9706 6.21881 14.9706C4.68653 14.9706 3.20751 14.4084 2.06211 13.3906C0.916705 12.3728 0.184537 10.9701 0.00439496 9.44846C-0.0361859 9.10568 0.208798 8.7949 0.551583 8.75432Z" fill="#1AB192"/>
</svg>
