<svg width="23" height="23" viewBox="0 0 23 23" fill="none" xmlns="http://www.w3.org/2000/svg">
<path d="M19.4589 0.545468L2.12063 7.73637C1.39018 8.03929 0.911315 8.74439 0.87083 9.57635C0.830405 10.4084 1.23653 11.1996 1.93075 11.6411L7.41354 15.1285L12.6871 9.60341C12.9298 9.34917 13.3317 9.35802 13.5849 9.62323C13.838 9.88842 13.8465 10.3096 13.6038 10.5638L8.33024 16.0889L11.6588 21.8332C12.0803 22.5605 12.8355 22.9861 13.6296 22.9436C14.4253 22.9011 15.0972 22.3981 15.3858 21.6342L22.2494 3.46907C22.5619 2.64202 22.3695 1.72332 21.7473 1.07147C21.1252 0.419613 20.2482 0.217998 19.4589 0.545468Z" fill="#7F8699"/>
</svg>
