<svg width="17" height="18" viewBox="0 0 17 18" fill="none" xmlns="http://www.w3.org/2000/svg">
<path fill-rule="evenodd" clip-rule="evenodd" d="M5 4.5C5 2.567 6.567 1 8.5 1C10.433 1 12 2.567 12 4.5C12 6.433 10.433 8 8.5 8C6.567 8 5 6.433 5 4.5ZM1 15.0496C1 12.8681 2.76848 11.0996 4.95 11.0996H11.27C13.4515 11.0996 15.22 12.8681 15.22 15.0496C15.22 17.0359 13.7539 17.0217 11.8448 17.0033C11.6572 17.0015 11.4652 16.9996 11.27 16.9996H4.95C4.75476 16.9996 4.56282 17.0015 4.37516 17.0033C2.46609 17.0217 1 17.0359 1 15.0496Z" fill="url(#paint0_linear_353_968)"/>
<path d="M11.8448 17.0033L11.8352 18.0032H11.8352L11.8448 17.0033ZM4.37516 17.0033L4.38482 18.0032H4.38483L4.37516 17.0033ZM8.5 0C6.01472 0 4 2.01472 4 4.5H6C6 3.11929 7.11929 2 8.5 2V0ZM13 4.5C13 2.01472 10.9853 0 8.5 0V2C9.88071 2 11 3.11929 11 4.5H13ZM8.5 9C10.9853 9 13 6.98528 13 4.5H11C11 5.88071 9.88071 7 8.5 7V9ZM4 4.5C4 6.98528 6.01472 9 8.5 9V7C7.11929 7 6 5.88071 6 4.5H4ZM4.95 10.0996C2.21619 10.0996 0 12.3158 0 15.0496H2C2 13.4204 3.32076 12.0996 4.95 12.0996V10.0996ZM11.27 10.0996H4.95V12.0996H11.27V10.0996ZM16.22 15.0496C16.22 12.3158 14.0038 10.0996 11.27 10.0996V12.0996C12.8992 12.0996 14.22 13.4204 14.22 15.0496H16.22ZM11.8352 18.0032C12.3027 18.0077 12.7928 18.0131 13.2442 17.9829C13.6931 17.9529 14.1757 17.8846 14.6202 17.7065C15.0858 17.52 15.5181 17.2088 15.8177 16.7114C16.1077 16.2299 16.22 15.6623 16.22 15.0496H14.22C14.22 15.4301 14.149 15.6056 14.1045 15.6795C14.0696 15.7374 14.016 15.794 13.8764 15.8499C13.7157 15.9143 13.4739 15.9631 13.1109 15.9873C12.7506 16.0114 12.3416 16.008 11.8545 16.0033L11.8352 18.0032ZM11.27 17.9996C11.4596 17.9996 11.6468 18.0014 11.8352 18.0032L11.8545 16.0033C11.6676 16.0015 11.4709 15.9996 11.27 15.9996V17.9996ZM4.95 17.9996H11.27V15.9996H4.95V17.9996ZM4.38483 18.0032C4.5732 18.0014 4.76036 17.9996 4.95 17.9996V15.9996C4.74915 15.9996 4.55244 16.0015 4.3655 16.0033L4.38483 18.0032ZM0 15.0496C0 15.6623 0.112263 16.2299 0.402301 16.7114C0.70192 17.2088 1.13421 17.52 1.59979 17.7065C2.04426 17.8846 2.5269 17.9529 2.97575 17.9829C3.42719 18.0131 3.91734 18.0077 4.38482 18.0032L4.3655 16.0033C3.87845 16.008 3.46943 16.0114 3.10905 15.9873C2.74609 15.9631 2.50425 15.9143 2.34356 15.8499C2.20399 15.794 2.15044 15.7374 2.11551 15.6795C2.071 15.6056 2 15.4301 2 15.0496H0Z" fill="url(#paint1_linear_353_968)"/>
<defs>
<linearGradient id="paint0_linear_353_968" x1="8.90632" y1="1" x2="8.79623" y2="17.006" gradientUnits="userSpaceOnUse">
<stop stop-color="#65BEAC" stop-opacity="0.97"/>
<stop offset="0.984375" stop-color="#3E8575"/>
</linearGradient>
<linearGradient id="paint1_linear_353_968" x1="8.90632" y1="1" x2="8.79623" y2="17.006" gradientUnits="userSpaceOnUse">
<stop stop-color="#65BEAC" stop-opacity="0.97"/>
<stop offset="0.984375" stop-color="#3E8575"/>
</linearGradient>
</defs>
</svg>
