<svg width="15" height="17" viewBox="0 0 15 17" fill="none" xmlns="http://www.w3.org/2000/svg">
<path fill-rule="evenodd" clip-rule="evenodd" d="M9.49767 1.48012C10.0921 0.941499 10.8709 0.652102 11.6729 0.671846C12.4748 0.691591 13.2384 1.01897 13.8057 1.58619C14.3729 2.15342 14.7003 2.91705 14.72 3.71898C14.7398 4.52092 14.4504 5.29973 13.9117 5.89419C13.9058 5.90071 13.8998 5.9071 13.8936 5.91337L6.13579 13.7806C6.12757 13.7889 6.11911 13.797 6.11043 13.8049C5.75375 14.128 5.28646 14.3017 4.8053 14.2898C4.32414 14.278 3.86596 14.0816 3.52563 13.7412C3.18529 13.4009 2.98887 12.9427 2.97702 12.4616C2.96518 11.9804 3.13881 11.5131 3.46199 11.1564C3.46771 11.1501 3.47356 11.1439 3.47953 11.1378L9.98735 4.52066C10.2294 4.27456 10.6251 4.27126 10.8712 4.51329C11.1173 4.75533 11.1206 5.15104 10.8786 5.39715L4.38126 12.0037C4.27806 12.1215 4.22278 12.2739 4.22664 12.4308C4.23059 12.5912 4.29607 12.7439 4.40951 12.8573C4.52296 12.9708 4.67568 13.0363 4.83607 13.0402C4.9916 13.044 5.14278 12.9897 5.26021 12.8882L12.9936 5.04576C13.3115 4.69026 13.4821 4.22682 13.4704 3.74975C13.4585 3.26859 13.2621 2.81041 12.9218 2.47007C12.5815 2.12974 12.1233 1.93331 11.6421 1.92147C11.1664 1.90975 10.7042 2.07936 10.3491 2.39553L2.60147 10.2524C2.01627 10.8376 1.6875 11.6313 1.6875 12.4589C1.6875 13.2865 2.01626 14.0802 2.60146 14.6654C3.18666 15.2506 3.98036 15.5794 4.80796 15.5794C5.63555 15.5794 6.42925 15.2506 7.01445 14.6654L13.4291 8.26642C13.6734 8.02264 14.0692 8.02313 14.3129 8.2675C14.5567 8.51188 14.5562 8.9076 14.3119 9.15138L7.89834 15.5493C7.07872 16.3689 5.96707 16.8294 4.80796 16.8294C3.64884 16.8294 2.5372 16.3689 1.71758 15.5493C0.897958 14.7297 0.4375 13.618 0.4375 12.4589C0.4375 11.3005 0.897353 10.1896 1.71596 9.37014L9.47231 1.50444C9.48053 1.4961 9.48899 1.48799 9.49767 1.48012Z" fill="#1AB192"/>
</svg>
