<svg width="16" height="15" viewBox="0 0 16 15" fill="none" xmlns="http://www.w3.org/2000/svg">
<path fill-rule="evenodd" clip-rule="evenodd" d="M3.28425 2.29909C4.29823 0.989975 5.86952 0 8.03 0C10.19 0 11.7613 0.990002 12.7754 2.29906C13.7735 3.58751 14.238 5.18834 14.238 6.48664C14.238 6.85928 14.2267 7.13594 14.2182 7.34586C14.2163 7.38905 14.2147 7.42935 14.2133 7.46712C14.2049 7.69294 14.2066 7.80144 14.2239 7.90888C14.2634 8.15333 14.3882 8.45443 14.8871 9.55539C14.8921 9.56641 14.8968 9.5776 14.9012 9.58887C15.2615 10.5177 15.181 11.3722 14.7523 12.0963C14.3432 12.7873 13.6557 13.296 12.9125 13.6673C11.4263 14.4098 9.46176 14.7293 8.03 14.7293C6.5978 14.7293 4.633 14.4098 3.14683 13.6673C2.40365 13.296 1.71614 12.7872 1.3072 12.0962C0.878638 11.372 0.798233 10.5175 1.15889 9.5887C1.16324 9.57751 1.16792 9.56641 1.17289 9.55539C1.67175 8.45443 1.79661 8.15333 1.83604 7.90888C1.85338 7.80144 1.85509 7.69294 1.84666 7.46712C1.84524 7.42935 1.84359 7.38905 1.84183 7.34586C1.83325 7.13595 1.82194 6.85929 1.82194 6.48664C1.82194 5.18841 2.28626 3.58757 3.28425 2.29909ZM4.31901 3.10283C3.50817 4.14969 3.13148 5.46431 3.13148 6.48664C3.13148 6.83031 3.14159 7.07859 3.1501 7.28763C3.15194 7.33274 3.15371 7.37602 3.15528 7.41807C3.16397 7.65054 3.16853 7.8719 3.12882 8.1181C3.05504 8.57534 2.83074 9.07035 2.38203 10.0606L2.37328 10.0799C2.156 10.6505 2.22569 11.076 2.43376 11.4276C2.66337 11.8156 3.10352 12.1802 3.73141 12.4939C4.98738 13.1213 6.73827 13.4179 8.03 13.4179C9.32121 13.4179 11.072 13.1213 12.3279 12.4939C12.9559 12.1802 13.3961 11.8156 13.6258 11.4275C13.834 11.0759 13.9037 10.6504 13.6867 10.0799L13.678 10.0605C13.2292 9.07035 13.0049 8.57534 12.9312 8.1181C12.8914 7.8719 12.896 7.65054 12.9047 7.41807C12.9063 7.37611 12.908 7.33274 12.9099 7.28763C12.9184 7.07859 12.9285 6.83032 12.9285 6.48664C12.9285 5.46438 12.5517 4.14976 11.7407 3.10287C10.9456 2.07659 9.74035 1.3114 8.03 1.3114C6.31922 1.3114 5.11386 2.07662 4.31901 3.10283Z" fill="white"/>
</svg>
