<svg width="5" height="18" viewBox="0 0 5 18" fill="none" xmlns="http://www.w3.org/2000/svg">
<path d="M4.4375 15.875C4.4375 16.422 4.2202 16.9466 3.83341 17.3334C3.44661 17.7202 2.92201 17.9375 2.375 17.9375C1.82799 17.9375 1.30339 17.7202 0.916592 17.3334C0.529798 16.9466 0.3125 16.422 0.3125 15.875C0.3125 15.328 0.529798 14.8034 0.916592 14.4166C1.30339 14.0298 1.82799 13.8125 2.375 13.8125C2.92201 13.8125 3.44661 14.0298 3.83341 14.4166C4.2202 14.8034 4.4375 15.328 4.4375 15.875ZM4.4375 9C4.4375 9.54701 4.2202 10.0716 3.83341 10.4584C3.44661 10.8452 2.92201 11.0625 2.375 11.0625C1.82799 11.0625 1.30339 10.8452 0.916592 10.4584C0.529798 10.0716 0.3125 9.54701 0.3125 9C0.3125 8.45299 0.529798 7.92839 0.916592 7.54159C1.30339 7.1548 1.82799 6.9375 2.375 6.9375C2.92201 6.9375 3.44661 7.1548 3.83341 7.54159C4.2202 7.92839 4.4375 8.45299 4.4375 9ZM4.4375 2.125C4.4375 2.67201 4.2202 3.19661 3.83341 3.58341C3.44661 3.9702 2.92201 4.1875 2.375 4.1875C1.82799 4.1875 1.30339 3.9702 0.916592 3.58341C0.529798 3.19661 0.3125 2.67201 0.3125 2.125C0.3125 1.57799 0.529798 1.05339 0.916592 0.666592C1.30339 0.279799 1.82799 0.0625 2.375 0.0625C2.92201 0.0625 3.44661 0.279799 3.83341 0.666592C4.2202 1.05339 4.4375 1.57799 4.4375 2.125Z" fill="#7F8699"/>
</svg>
